<svg xmlns="http://www.w3.org/2000/svg" viewBox="0 0 1811.89 35.06"><defs><style>.cls-1{fill:#ffffff;}</style></defs><title>pattern2</title><g id="Capa_2" data-name="Capa 2"><g id="Capa_1-2" data-name="Capa 1"><g id="Grupo_105" data-name="Grupo 105"><g id="Grupo_104" data-name="Grupo 104"><g id="Grupo_99" data-name="Grupo 99"><path id="Trazado_863" data-name="Trazado 863" class="cls-1" d="M155.36,33.25c1,1,1,3,5,.91C159.36,33.18,158.32,31.19,155.36,33.25Z"/></g><g id="Grupo_101" data-name="Grupo 101"><path id="Trazado_865" data-name="Trazado 865" class="cls-1" d="M1718,9.68c1,0,1-1,2-1C1719,8.67,1718,8.68,1718,9.68Z"/></g></g></g><polygon class="cls-1" points="1041.42 19.18 1041.42 19.18 1041.42 19.18 1041.42 19.18"/><path class="cls-1" d="M1534,10.81c-8,.14-17.12-1.71-25.15-.57-4,.06-7,3.12-10,3.17-21.13-.64-42.17,3.71-63.32,2.07-4-.93-9.07-.84-13.1-1.77-11.08-.82-22.09,2.37-33.14,2.56-59.35-1-117.68-1-177-2l-154.87-.37c-4-.93-9,.15-13.07.22C968.89,11.41,895.52,13.66,820,9.94a77,77,0,0,0-15.1-.74c-20.14-1.66-41.22.7-61.34,0-15.08.26-30.18-.49-45.26-.23-38.21-.35-77.44-.68-115.64,0-1,0-2,2-3,2-4,.07-7.07-1.88-11.1-1.81-185-.86-369.93,7.28-554.77,18.43C9.23,27.19,4.61,27,0,26.85v8.21H1811.89V0C1719.22,1,1626.63,6.35,1534,10.81ZM781.94,16.59h0c-4,2.07-9,1.16-13.06,1.22-13,1.23-27.14.47-40.23-.31-40.24-1.32-79.43.35-119.66,0-20.11.34-41.22.7-61.31,2-1,0-3-1.94-4-1.93a98.73,98.73,0,0,0-17.08,1.29c-12,1.21-24.14-.59-36.19.62-43.21,1.73-87.48.49-130.69,2.22l-22.12.38c-32.11,3.54-63.36-.93-95.48,2.62-4,.07-8,2.14-13.08-.78-3-.95-6,.1-9,1.16-5,2.08-10,1.17-15.09-.75a68.13,68.13,0,0,0-20.11.34,144,144,0,0,1-29.1,3.5c-3,1.05-6.07-1.9-9.1-2.85,57.27-3,115.61-2,172.85-6.94,93.54,1.41,187-3.18,280.51-2.76,62.33-1.06,125.72.86,188.05-.2A12.72,12.72,0,0,1,781.94,16.59Zm29.2,2.51c-4.12.07-7.33-1.74-10.87-2.55,9.31,0,18.59-1.27,27.93.26C822.16,16.91,817.14,17,811.14,19.1Zm148.8-1.53a97.63,97.63,0,0,0-17.07,1.29c-12,1.2-25.15-.57-37.23-1.37-16.11-.73-31.15,1.53-47.25.8a124.07,124.07,0,0,0-19.14-1.67c36.19-.62,73.44,1.75,109.6-.86,25.88,3.51,51.66,1.18,78.49,3.56Q993.67,19.47,959.94,17.57Zm81.48,1.61c-3.78.07-7.57.11-11.35.13,6.31-.51,11.88-3,18.35-2.25,15.14,2.75,30.16-.51,45.29,2.23C1076.61,18.58,1058.55,20.89,1041.42,19.18Zm81.45-.38h0l-15.08.26a145.77,145.77,0,0,1,36.21.38C1137,20.56,1129.89,17.68,1122.87,18.8Zm80.44-.37-8.27.14c3.8-.63,7.73-2.38,12.29-.21ZM1300,28.79h0c-4,3.07-9.07-.85-14.08.24a3.54,3.54,0,0,1-1-2l16.09-.28C1301,27.77,1300,27.79,1300,28.79Zm41.2-1.7h0c-4,2.07-8,2.14-11.08-.81l12.07-.21Zm52.28-.89h0c-2,0-5,1.09-7-.88l12.06-.2C1396.5,25.15,1395.52,26.17,1393.51,26.2Zm287.43-9.89a7.7,7.7,0,0,0-4,2.07c0,1,1,1,1,2l-15.08.26c3-1.05,6-1.1,9-2.15-9.06-.85-18.15-2.69-27.16-.54.07,4,3,1.95,5.1,3.91-10.06.17-19.14-1.67-29.17-.5-25.1,2.43-50.25,1.85-75.37,3.28-5,1.09-10,1.17-15,2.26-11,.19-22.08,2.37-33.19-.44l-3.06-3c29.12-2.49,58.3-1,87.42-3.48,10.06-.18,21.1-1.36,31.17-.53,1,0,3,.94,4,.93s2-1,3-2.05c3-1.06,6-.11,9-.16-1,0-1,1-2,1,5-.09,9.07.84,14.06-1.24-1,0-1-1-2-1,17.07-1.29,33.19.44,50.25-1.85,4.85-.09,9.67-2,14.57.47C1695.94,15.73,1688.4,15.9,1680.94,16.31Zm79.4-2.35h0c-17.54,1.65-35.57,1.49-53.43,1.65,29.1-3.16,57.38-2.78,86.55-5.21C1782.42,11.59,1771.4,13.78,1760.34,14Z"/></g></g></svg>