<?xml version="1.0" encoding="utf-8"?>
<!-- Generator: Adobe Illustrator 23.1.1, SVG Export Plug-In . SVG Version: 6.00 Build 0)  -->
<svg version="1.1" id="Layer_1" xmlns="http://www.w3.org/2000/svg" xmlns:xlink="http://www.w3.org/1999/xlink" x="0px" y="0px"
	 viewBox="0 0 69.8 76.45" style="enable-background:new 0 0 69.8 76.45;" xml:space="preserve">
<style type="text/css">
	.st0{fill:#FFFFFF;stroke:#FFFFFF;stroke-width:1.485;stroke-miterlimit:10;}
	.st1{fill:#FFFFFF;}
	.st2{fill:#6395B4;stroke:#6395B4;stroke-width:0.8032;stroke-miterlimit:10;}
</style>
<circle class="st0" cx="34.9" cy="38.42" r="22.94"/>
<g>
	<path class="st1" d="M18.31,4.68l3.22,8.61c0.13,0.33,0.02,0.6-0.28,0.78l-0.67,0.41c-0.3,0.18-0.59,0.15-0.82-0.12l-6.14-6.85
		c-0.27-0.31-0.21-0.6,0.12-0.81l0.46-0.28c0.3-0.18,0.58-0.14,0.81,0.14L19.6,12l-2.7-6.57c-0.14-0.34-0.04-0.6,0.26-0.78
		l0.39-0.23C17.88,4.21,18.17,4.29,18.31,4.68z"/>
	<path class="st1" d="M27.69,11.23l-3.14,1.14c-0.35,0.13-0.62,0.01-0.74-0.35l-3.09-8.47c-0.13-0.36-0.01-0.62,0.35-0.75l3.1-1.13
		c0.35-0.13,0.62-0.01,0.75,0.35l0.11,0.3c0.13,0.36,0.01,0.62-0.35,0.75l-2.06,0.75l0.96,2.62l1.64-0.6
		c0.36-0.13,0.62-0.01,0.75,0.35l0.11,0.3c0.13,0.36,0.01,0.62-0.35,0.75l-1.64,0.6l1,2.76l2.11-0.77c0.35-0.13,0.62-0.01,0.74,0.35
		l0.11,0.3C28.17,10.84,28.05,11.1,27.69,11.23z"/>
	<path class="st1" d="M33.56,5.45l0.38,2.59c0.23,1.56-0.7,2.28-2.22,2.5l-0.12,0.02c-1.53,0.22-2.62-0.19-2.84-1.76l-0.88-6.05
		c-0.22-1.5,0.7-2.28,2.23-2.5l0.12-0.02C31.74,0.01,32.84,0.5,33.06,2l0.13,0.86c0.05,0.37-0.12,0.61-0.49,0.66L32.18,3.6
		c-0.37,0.05-0.6-0.12-0.66-0.49l-0.09-0.6c-0.1-0.72-0.51-0.87-1.06-0.79s-0.89,0.34-0.79,1.06l0.8,5.53
		c0.11,0.72,0.51,0.87,1.06,0.79s0.89-0.34,0.79-1.06l-0.22-1.5l-0.4,0.06C31.23,6.64,31,6.47,30.95,6.1l-0.04-0.26
		c-0.05-0.37,0.12-0.61,0.49-0.66l1.5-0.22C33.27,4.9,33.51,5.08,33.56,5.45z"/>
	<path class="st1" d="M39.98,10.35l-0.54-0.03c-0.35-0.02-0.56-0.21-0.59-0.58l-0.17-1.75l-1.86-0.12l-0.39,1.71
		c-0.08,0.36-0.31,0.52-0.66,0.5l-0.45-0.03c-0.39-0.03-0.58-0.26-0.48-0.66l2.25-8.91c0.08-0.34,0.32-0.5,0.67-0.48l1.05,0.07
		c0.35,0.02,0.57,0.21,0.6,0.56l1.12,9.13C40.59,10.17,40.38,10.38,39.98,10.35z M38.56,6.59l-0.42-4.56l-1,4.47L38.56,6.59z"/>
	<path class="st1" d="M42.19,10.81l-0.36-0.11c-0.36-0.11-0.5-0.36-0.4-0.72l2.53-8.65c0.11-0.36,0.36-0.5,0.72-0.4l0.58,0.17
		c0.32,0.09,0.49,0.31,0.49,0.64l0.26,6.14l1.61-5.48c0.11-0.36,0.36-0.5,0.72-0.4l0.36,0.11c0.36,0.11,0.5,0.36,0.4,0.72
		l-2.53,8.65c-0.11,0.36-0.36,0.5-0.72,0.4l-0.5-0.15c-0.32-0.09-0.48-0.31-0.49-0.64L44.6,4.62l-1.7,5.79
		C42.8,10.78,42.55,10.92,42.19,10.81z"/>
	<path class="st1" d="M54.72,4.76l0.1,0.06c1.35,0.75,1.94,1.78,1.19,3.13l-2.98,5.33c-0.75,1.35-1.94,1.38-3.28,0.63l-0.1-0.06
		c-1.35-0.75-1.94-1.78-1.18-3.13l2.98-5.33C52.2,4.03,53.38,4.01,54.72,4.76z M50.42,12.58c0.48,0.27,0.91,0.28,1.27-0.36
		l2.72-4.87c0.35-0.64,0.12-1-0.36-1.27s-0.91-0.28-1.27,0.36l-2.72,4.87C49.71,11.95,49.94,12.31,50.42,12.58z"/>
</g>
<path class="st2" d="M42.58,32.63c-1.98,1.5-13.18,11.58-12.35,18.63c2.21-0.1,4.34-0.63,6.37-1.71c2.56-1.36,4.55-3.35,6.2-5.7
	c2.1-3,3.49-6.33,4.56-9.81c0.97-3.17,1.63-6.41,2.05-9.69c0.01-0.09,0.04-0.17,0.03-0.26c-0.01-0.12-0.05-0.23-0.08-0.35
	c-0.11,0.04-0.24,0.06-0.34,0.12c-0.81,0.45-1.57,1.04-2.44,1.33c-1.62,0.55-3.28,1-4.95,1.38c-2.58,0.59-5.2,1.02-7.77,1.64
	c-2.89,0.7-5.62,1.84-7.9,3.81c-4.33,3.76-6.26,8.47-5.4,14.21c0.22,1.43,0.74,2.76,1.7,3.89c0.12,0.14,0.06,0.48,0.01,0.71
	c-0.2,1.07-0.42,2.13-0.65,3.2c-0.09,0.44,0.04,0.75,0.45,0.95c0.24,0.12,0.47,0.27,0.71,0.4c0.48,0.27,0.53,0.23,0.62-0.3
	c0.22-1.43,0.41-2.86,0.71-4.28c1.28-6.12,4.52-10.92,9.79-14.29c2.18-1.4,4.28-3.02,6.48-4.39c0.67-0.41,1.09-0.86,1.91-1.11
	C42.33,31.05,43.4,31.8,42.58,32.63z"/>
</svg>
