<svg height="22.721" viewBox="0 0 16 22.721" width="16" xmlns="http://www.w3.org/2000/svg"><g fill="#fff" transform="translate(-75.726)"><path d="m83.726 22.721a8.072 8.072 0 0 1 -8-8.125v-6.471a8 8 0 1 1 16 0v6.5a8.06 8.06 0 0 1 -8 8.096zm0-21.216a6.566 6.566 0 0 0 -6.5 6.621v6.474a6.5 6.5 0 1 0 12.991.025v-6.5a6.566 6.566 0 0 0 -6.491-6.625z"/><path d="m239.8 144.288a.752.752 0 0 1 -.752-.752v-2.636a.752.752 0 1 1 1.5 0v2.633a.752.752 0 0 1 -.748.755z" transform="translate(-156.072 -133.931)"/></g></svg>