<svg xmlns="http://www.w3.org/2000/svg" width="40" height="40" viewBox="0 0 40 40"><path d="M20,40A20,20,0,0,1,5.858,5.858,20,20,0,1,1,34.142,34.142,19.869,19.869,0,0,1,20,40ZM20,3.232A16.768,16.768,0,1,0,36.768,20,16.787,16.787,0,0,0,20,3.232Z" transform="translate(0)" fill="#ffb600"/><path d="M242.45,113.9a1.611,1.611,0,0,1-1.143-.473l-5.515-5.515a1.616,1.616,0,0,1-.473-1.143V95.743a1.616,1.616,0,0,1,3.232,0V106.1l5.042,5.042a1.616,1.616,0,0,1-1.143,2.758Z" transform="translate(-216.935 -86.773)" fill="#ffb600"/></svg>