<svg xmlns="http://www.w3.org/2000/svg" width="43.05" height="41" viewBox="0 0 43.05 41"><g transform="translate(0)"><path d="M291,373.008a11.5,11.5,0,1,0-11.522-11.521A11.524,11.524,0,0,0,291,373.008Zm0-20a8.482,8.482,0,1,1-8.483,8.482A8.508,8.508,0,0,1,291,353Zm0,0" transform="translate(-269.548 -350)" fill="#ffb600"/><path d="M258.52,422.617H298.53a1.509,1.509,0,0,0,1.52-1.521,14.473,14.473,0,0,0-14.457-14.455H271.455A14.473,14.473,0,0,0,257,421.1a1.509,1.509,0,0,0,1.52,1.521Zm12.935-12.937h14.138a11.409,11.409,0,0,1,11.311,9.9H260.146a11.439,11.439,0,0,1,11.309-9.9Zm0,0" transform="translate(-257 -381.617)" fill="#ffb600"/></g></svg>