<svg xmlns="http://www.w3.org/2000/svg" width="26.443" height="25.309" viewBox="0 0 26.443 25.309"><defs><style>.a{fill:none;stroke:#fff;stroke-linecap:round;stroke-linejoin:round;stroke-width:1.5px;}</style></defs><g transform="translate(0.75 0.75)"><path class="a" d="M14.268,31.134A1.134,1.134,0,1,1,13.134,30,1.134,1.134,0,0,1,14.268,31.134Z" transform="translate(-4.064 -8.458)"/><path class="a" d="M30.768,31.134A1.134,1.134,0,1,1,29.634,30,1.134,1.134,0,0,1,30.768,31.134Z" transform="translate(-8.092 -8.458)"/><path class="a" d="M1.5,1.5H6.035L9.074,16.681a2.268,2.268,0,0,0,2.268,1.825h11.02a2.268,2.268,0,0,0,2.268-1.825l1.814-9.512H7.169" transform="translate(-1.5 -1.5)"/></g></svg>