<svg xmlns="http://www.w3.org/2000/svg" width="51.985" height="75.718" viewBox="0 0 51.985 75.718"><g transform="translate(0 0)"><g transform="translate(3.15 14.869)"><circle cx="22.978" cy="22.978" r="22.978" fill="#fff" stroke="#fff" stroke-miterlimit="10" stroke-width="1.512"/><g transform="translate(4.141 12.598)"><path d="M543.781,1085.061c-4.742,4.08-3.677,12.5.113,14.6.121-1.614.67-6.842,1.275-9.677a56.821,56.821,0,0,0,1.373,9.818c4.22-1.761,5.46-9.946.621-14.589A2.2,2.2,0,0,0,543.781,1085.061Z" transform="translate(-526.741 -1084.341)" fill="#6395b4" stroke="#6395b4" stroke-miterlimit="10" stroke-width="0.61"/><path d="M572.95,1102.442a11.023,11.023,0,0,0-10.891,5.951c1.042-.571,4.386-2.412,7.205-2.753a45.545,45.545,0,0,0-6.694,4.752c3.33,1.425,10,.109,12.324-4.871C575.545,1104.129,575.875,1102.723,572.95,1102.442Z" transform="translate(-538.182 -1093.972)" fill="#6395b4" stroke="#6395b4" stroke-linecap="round" stroke-linejoin="round" stroke-width="0.61"/><path d="M513.235,1102.442a11.022,11.022,0,0,1,10.891,5.951c-1.041-.571-4.387-2.412-7.205-2.753a45.531,45.531,0,0,1,6.694,4.752c-3.33,1.425-10,.109-12.324-4.871C510.64,1104.129,510.311,1102.723,513.235,1102.442Z" transform="translate(-510.849 -1093.972)" fill="#6395b4" stroke="#6395b4" stroke-linecap="round" stroke-linejoin="round" stroke-width="0.61"/></g></g><path d="M500.538,1043.9l1.228,1.553c.977,1.237.547,2.375-.692,3.353l-.76.6,2.131,2.7a.535.535,0,0,1-.1.837l-.422.332a.533.533,0,0,1-.836-.1l-5.72-7.244a.533.533,0,0,1,.1-.835l1.646-1.3C498.356,1042.817,499.56,1042.661,500.538,1043.9Zm-1.189,1.28a.824.824,0,0,0-1.338-.157l-.712.562,2.074,2.628.714-.563a.826.826,0,0,0,.158-1.338Z" transform="translate(-495.213 -1034.817)" fill="#fff"/><path d="M518.591,1043.164l-.469.226a.629.629,0,0,1-.815-.154l-2.632-2.8-.793.381,1.54,3.206a.533.533,0,0,1-.278.793l-.484.233a.534.534,0,0,1-.794-.279l-3.995-8.316a.535.535,0,0,1,.279-.794l1.891-.909c1.421-.682,2.63-.571,3.315.852l.805,1.677a1.908,1.908,0,0,1-.182,2.233l2.758,2.818A.473.473,0,0,1,518.591,1043.164Zm-5.352-3.686.818-.393a.826.826,0,0,0,.446-1.271l-.587-1.22a.825.825,0,0,0-1.271-.446l-.819.394Z" transform="translate(-502.994 -1030.19)" fill="#fff"/><path d="M529.465,1028.727l.117-.027c1.537-.346,2.692.035,3.037,1.574l1.374,6.095c.346,1.537-.532,2.375-2.071,2.722l-.116.026c-1.539.347-2.692-.034-3.038-1.571l-1.374-6.1C527.046,1029.9,527.926,1029.074,529.465,1028.727Zm2.065,8.9a.825.825,0,0,0,.72-1.138L531,1030.915a.952.952,0,0,0-1.858.418l1.256,5.573A.825.825,0,0,0,531.53,1037.625Z" transform="translate(-512.349 -1027.113)" fill="#fff"/><path d="M548.206,1027.467l.01.328a.534.534,0,0,1-.579.611l-1.145.033.239,8.3a.533.533,0,0,1-.579.611l-.535.016a.533.533,0,0,1-.611-.577l-.239-8.3-1.143.033a.536.536,0,0,1-.613-.578l-.009-.326a.535.535,0,0,1,.578-.613l4.013-.115A.536.536,0,0,1,548.206,1027.467Z" transform="translate(-520.72 -1026.209)" fill="#fff"/><path d="M560.207,1038.307l-3.379-.536a.534.534,0,0,1-.495-.68l1.448-9.109a.534.534,0,0,1,.68-.495l3.335.53a.532.532,0,0,1,.493.68l-.051.324a.534.534,0,0,1-.68.495l-2.218-.352-.448,2.82,1.762.281a.534.534,0,0,1,.5.68l-.051.323a.532.532,0,0,1-.681.493l-1.763-.278-.47,2.967,2.262.359a.532.532,0,0,1,.493.68l-.051.323A.533.533,0,0,1,560.207,1038.307Z" transform="translate(-527.83 -1026.522)" fill="#fff"/><path d="M569.262,1038.025l-.511-.164a.532.532,0,0,1-.381-.748l2.837-8.771a.535.535,0,0,1,.749-.384l.509.165a.534.534,0,0,1,.382.75l-2.837,8.771A.533.533,0,0,1,569.262,1038.025Zm4.5-12.547.511.164c.48.156.535.518.1.8l-1.123.716a.864.864,0,0,1-.8.1l-.042-.013c-.438-.141-.516-.48-.194-.8l.749-.774A.715.715,0,0,1,573.757,1025.478Z" transform="translate(-534.237 -1025.431)" fill="#fff"/><path d="M575.472,1043.763l-.343-.18a.533.533,0,0,1-.25-.8l4.293-8.168a.535.535,0,0,1,.8-.251l.553.291a.642.642,0,0,1,.364.746l-.978,6.211,2.721-5.178a.535.535,0,0,1,.805-.249l.341.181a.533.533,0,0,1,.25.8l-4.293,8.168a.535.535,0,0,1-.8.251l-.474-.25a.642.642,0,0,1-.364-.746l1.051-6.542-2.874,5.466A.534.534,0,0,1,575.472,1043.763Z" transform="translate(-537.686 -1030.149)" fill="#fff"/><path d="M590.315,1055.812l-.42-.356a.588.588,0,0,1-.132-.833l.931-1.535-1.453-1.233-1.362,1.168a.588.588,0,0,1-.844.007l-.353-.3a.484.484,0,0,1,.005-.834l7.286-5.945a.6.6,0,0,1,.846.016l.816.693a.6.6,0,0,1,.153.832l-4.65,8.177A.486.486,0,0,1,590.315,1055.812Zm1.133-3.958,2.438-4-3.55,3.059Z" transform="translate(-543.909 -1036.296)" fill="#fff"/><g transform="translate(4.232 59.207)"><path d="M512.587,1155.886l-6.551,6.331a.583.583,0,0,1-.818.056l-.635-.451a.581.581,0,0,1-.218-.788l3.8-8.282a.47.47,0,0,1,.781-.2l.436.308a.57.57,0,0,1,.2.794l-3.134,6.294,4.9-5.045a.571.571,0,0,1,.815-.077l.365.259A.471.471,0,0,1,512.587,1155.886Z" transform="translate(-504.291 -1152.415)" fill="#fff"/><path d="M520.115,1170.694l-3.049-1.3a.516.516,0,0,1-.3-.757l3.509-8.22a.518.518,0,0,1,.759-.3l3.01,1.284a.519.519,0,0,1,.3.757l-.126.293a.518.518,0,0,1-.757.3l-2-.857-1.087,2.546,1.59.68a.517.517,0,0,1,.3.757l-.124.293a.517.517,0,0,1-.757.3l-1.592-.678-1.143,2.678,2.043.873a.516.516,0,0,1,.3.756l-.124.292A.517.517,0,0,1,520.115,1170.694Z" transform="translate(-510.913 -1156.488)" fill="#fff"/><path d="M538.081,1170.781l-.475,2.55c-.285,1.53-1.381,1.913-2.884,1.634l-.115-.021c-1.5-.28-2.39-1.017-2.1-2.563l1.11-5.952c.274-1.472,1.382-1.912,2.884-1.632l.113.021c1.5.28,2.379,1.089,2.1,2.563l-.159.851a.516.516,0,0,1-.672.46l-.511-.1a.516.516,0,0,1-.46-.672l.111-.595a.922.922,0,1,0-1.814-.338l-1.014,5.441a.922.922,0,1,0,1.814.338l.274-1.472-.4-.075a.517.517,0,0,1-.462-.672l.047-.256a.517.517,0,0,1,.674-.46l1.473.274A.516.516,0,0,1,538.081,1170.781Z" transform="translate(-519.321 -1158.982)" fill="#fff"/><path d="M553.871,1176.038l-3.314.114a.517.517,0,0,1-.6-.556l-.31-8.932a.517.517,0,0,1,.558-.6l3.269-.115a.519.519,0,0,1,.6.558l.009.318a.516.516,0,0,1-.556.6l-2.174.075.1,2.765,1.727-.06a.518.518,0,0,1,.6.556l.011.317a.518.518,0,0,1-.558.6l-1.728.06.1,2.909,2.219-.077a.518.518,0,0,1,.595.558l.011.315A.518.518,0,0,1,553.871,1176.038Z" transform="translate(-528.502 -1159.641)" fill="#fff"/><path d="M565.417,1163.988l.071.308a.518.518,0,0,1-.428.695l-1.079.255,1.849,7.824a.518.518,0,0,1-.428.695l-.5.118a.517.517,0,0,1-.693-.428l-1.85-7.824-1.079.254a.518.518,0,0,1-.695-.428l-.073-.308a.518.518,0,0,1,.43-.693l3.785-.9A.518.518,0,0,1,565.417,1163.988Z" transform="translate(-534.284 -1158.351)" fill="#fff"/><path d="M581.014,1169l-.488.218a.569.569,0,0,1-.783-.235l-.948-1.457-1.686.751.447,1.68a.569.569,0,0,1-.349.74l-.408.18a.47.47,0,0,1-.727-.355l-2.129-8.855a.582.582,0,0,1,.368-.732l.948-.423a.583.583,0,0,1,.792.216l5.184,7.493A.47.47,0,0,1,581.014,1169Zm-2.98-2.649-2.471-3.81,1.179,4.384Z" transform="translate(-541.453 -1156.701)" fill="#fff"/><path d="M592.108,1161.366l.2.281a.516.516,0,0,1-.128.8l-2.51,1.817a.518.518,0,0,1-.806-.13l-5.238-7.238a.517.517,0,0,1,.13-.805l.421-.3a.516.516,0,0,1,.8.13l4.7,6.491,1.624-1.173A.517.517,0,0,1,592.108,1161.366Z" transform="translate(-546.564 -1154.144)" fill="#fff"/></g></g></svg>