<svg xmlns="http://www.w3.org/2000/svg" width="73.381" height="76.587" viewBox="0 0 73.381 76.587"><g transform="translate(0 0)"><g transform="translate(13.205 14.502)"><ellipse cx="18.301" cy="17.947" rx="18.301" ry="17.947" transform="translate(5.482 5.814)" fill="#fff" stroke="#fff" stroke-miterlimit="10" stroke-width="1.192"/><g transform="translate(12.994 7.601)"><path d="M370.618,1126.386s-4.387.427-7.057-2.028-2.611-6.861-2.611-6.861,4.387-.427,7.056,2.027S370.618,1126.386,370.618,1126.386Z" transform="translate(-360.949 -1096.387)" fill="#6395b4" stroke="#6395b4" stroke-miterlimit="10" stroke-width="0.508"/><path d="M384.859,1126.386s4.387.427,7.057-2.028,2.612-6.861,2.612-6.861-4.387-.427-7.057,2.027S384.859,1126.386,384.859,1126.386Z" transform="translate(-373.711 -1096.387)" fill="#6395b4" stroke="#6395b4" stroke-miterlimit="10" stroke-width="0.508"/><path d="M374.247,1093s-3.007.293-4.838-1.39-1.791-4.7-1.791-4.7,3.008-.293,4.837,1.39S374.247,1093,374.247,1093Z" transform="translate(-364.508 -1080.063)" fill="#6395b4" stroke="#6395b4" stroke-miterlimit="10" stroke-width="0.508"/><path d="M384.711,1093s3.007.293,4.838-1.39,1.791-4.7,1.791-4.7-3.008-.293-4.838,1.39S384.711,1093,384.711,1093Z" transform="translate(-373.632 -1080.063)" fill="#6395b4" stroke="#6395b4" stroke-miterlimit="10" stroke-width="0.508"/><path d="M373.151,1108.862s-3.424.333-5.508-1.583-2.039-5.355-2.039-5.355,3.424-.333,5.508,1.582S373.151,1108.862,373.151,1108.862Z" transform="translate(-363.433 -1088.079)" fill="#6395b4" stroke="#6395b4" stroke-miterlimit="10" stroke-width="0.508"/><path d="M384.754,1108.862s3.424.333,5.508-1.583,2.039-5.355,2.039-5.355-3.425-.333-5.508,1.582S384.754,1108.862,384.754,1108.862Z" transform="translate(-373.655 -1088.079)" fill="#6395b4" stroke="#6395b4" stroke-miterlimit="10" stroke-width="0.508"/><path d="M380.691,1081.259s2.249-2.019,2.246-4.506-2.257-4.5-2.257-4.5-2.248,2.019-2.246,4.5S380.691,1081.259,380.691,1081.259Z" transform="translate(-370.282 -1072.254)" fill="#6395b4" stroke="#6395b4" stroke-miterlimit="10" stroke-width="0.508"/></g><rect width="2.144" height="43.458" opacity="0.7" fill="#6395b4" stroke="#6395b4" stroke-miterlimit="10" stroke-width="0.76" transform="translate(40.728 11.073) rotate(53.647)"/><path d="M333.729,1080.273a23.413,23.413,0,1,1,23.413,23.413A23.413,23.413,0,0,1,333.729,1080.273Zm23.41,21.325a21.322,21.322,0,1,0-21.322-21.322A21.322,21.322,0,0,0,357.139,1101.6Z" transform="translate(-333.426 -1056.436)" fill="#fff"/><path d="M333.729,1080.273a23.413,23.413,0,1,1,23.413,23.413A23.413,23.413,0,0,1,333.729,1080.273Zm23.41,21.325a21.322,21.322,0,1,0-21.322-21.322A21.322,21.322,0,0,0,357.139,1101.6Z" transform="translate(-333.426 -1056.436)" fill="none"/><g transform="translate(2.026 2.05)"><path d="M383.589,1153.21c.07-.031.031-.1-.165-.094l-.14.111Z" transform="translate(-361.902 -1109.862)" fill="#fff"/><path d="M380.675,1152.711c-.231.045-.5.131-.364.246.237-.1.289-.051.541-.173.2,0,.339.055.3.1.07-.027.3.041.41-.027a1.689,1.689,0,0,0-.911-.066C380.586,1152.759,380.657,1152.732,380.675,1152.711Z" transform="translate(-360.295 -1109.646)" fill="#fff"/><path d="M346.994,1133.367l.062.105A.714.714,0,0,0,346.994,1133.367Z" transform="translate(-342.532 -1099.322)" fill="#fff"/><path d="M338.85,1110.076c.007.088.021.125.032.128C338.87,1110.122,338.859,1110.055,338.85,1110.076Z" transform="translate(-338.186 -1086.888)" fill="#fff"/><path d="M339.024,1105.829l-.014.116A.255.255,0,0,0,339.024,1105.829Z" transform="translate(-338.271 -1084.623)" fill="#fff"/><path d="M346.8,1133.057l-.157-.27C346.6,1132.791,346.719,1132.931,346.8,1133.057Z" transform="translate(-342.342 -1099.012)" fill="#fff"/><path d="M375.448,1152.63a.964.964,0,0,0,.176,0l-.163-.012A.092.092,0,0,1,375.448,1152.63Z" transform="translate(-357.72 -1109.594)" fill="#fff"/><path d="M354.549,1141.345l.07.064a.509.509,0,0,0,.089.016Z" transform="translate(-346.565 -1103.58)" fill="#fff"/><path d="M361.212,1146.153c-.074-.05-.15.021-.2.04a.347.347,0,0,1,.2.042A.1.1,0,0,0,361.212,1146.153Z" transform="translate(-350.013 -1106.137)" fill="#fff"/><path d="M373.744,1151.405l.111.014Z" transform="translate(-356.81 -1108.949)" fill="#fff"/><path d="M350.285,1137.022a.079.079,0,0,0,0-.05C350.278,1136.98,350.279,1137,350.285,1137.022Z" transform="translate(-344.287 -1101.246)" fill="#fff"/><path d="M393.948,1152.688c0-.007,0-.011,0-.017C393.923,1152.687,393.918,1152.7,393.948,1152.688Z" transform="translate(-367.583 -1109.625)" fill="#fff"/><path d="M383.938,1152.682l.063-.008a.176.176,0,0,0,.014-.057Z" transform="translate(-362.251 -1109.596)" fill="#fff"/><path d="M340.135,1098.184l0,.015C340.127,1098.295,340.133,1098.241,340.135,1098.184Z" transform="translate(-338.868 -1080.543)" fill="#fff"/><path d="M393.234,1063.038c-.346-.182.619.041.09-.2C393.365,1062.892,392.792,1062.864,393.234,1063.038Z" transform="translate(-367.123 -1061.679)" fill="#fff"/><path d="M375.044,1152.559l-.164-.024A1.263,1.263,0,0,0,375.044,1152.559Z" transform="translate(-357.416 -1109.552)" fill="#fff"/><path d="M393.556,1062.812h0l-.055-.024Z" transform="translate(-367.355 -1061.65)" fill="#fff"/><path d="M346.8,1081.86a.248.248,0,0,0-.087.043C346.722,1081.906,346.744,1081.9,346.8,1081.86Z" transform="translate(-342.382 -1071.83)" fill="#fff"/><path d="M340.844,1093.507l.066-.141A1.184,1.184,0,0,0,340.844,1093.507Z" transform="translate(-339.25 -1077.971)" fill="#fff"/><path d="M351.01,1076.12a.759.759,0,0,0,.158-.162.169.169,0,0,0-.032.018A.391.391,0,0,1,351.01,1076.12Z" transform="translate(-344.676 -1068.68)" fill="#fff"/><path d="M356.166,1071.448l-.062.021-.083.068Z" transform="translate(-347.351 -1066.273)" fill="#fff"/><path d="M413.8,1142.644a.5.5,0,0,1-.176.039C413.7,1142.7,413.342,1143.064,413.8,1142.644Z" transform="translate(-378.063 -1104.273)" fill="#fff"/><path d="M375.341,1152.53a.143.143,0,0,1-.11.026l.115.012C375.358,1152.556,375.363,1152.542,375.341,1152.53Z" transform="translate(-357.604 -1109.55)" fill="#fff"/><path d="M349.983,1074.472l.384-.4C350.255,1074.18,350.116,1074.326,349.983,1074.472Z" transform="translate(-344.128 -1067.673)" fill="#fff"/><path d="M428.7,1094.208l.043.12A.355.355,0,0,0,428.7,1094.208Z" transform="translate(-386.141 -1078.421)" fill="#fff"/><path d="M353.389,1071.417a1.429,1.429,0,0,0,.276-.157.248.248,0,0,0,.031-.063Z" transform="translate(-345.946 -1066.139)" fill="#fff"/><path d="M413.681,1142.728h0Z" transform="translate(-378.126 -1104.318)" fill="#fff"/><path d="M370.128,1101.03c.455-.273.147-.239.2-.361.516-.357.3-.069.518-.124a4.144,4.144,0,0,0,.405-.352,2.338,2.338,0,0,1,.332-.319c.03,0,.08-.023.042.039.269-.334.988-.738,1.283-1.137a.144.144,0,0,1,.067-.017.161.161,0,0,1-.169-.089c.172-.159.266-.353.387-.348a.368.368,0,0,0-.126.194l.157-.193c.244-.055-.22.257-.161.327a9.983,9.983,0,0,1,.967-1.023c.14.034-.607.606-.172.355l-.452.349c.449-.151-.266.223.166.106.574-.492.6-.593,1.143-1.113.066-.172-.109-.028-.043-.2.623-.865.788-.417,1.2-1.1a1.116,1.116,0,0,1,.387-.763l-.006.235c.448-.576.092-.449.621-1-.037.139-.305.484-.226.4.383-.333.146-.325.372-.627l.144,0c.194-.337.383-.7.577-1.07s.407-.739.567-1.138c.011.059-.02.209.1.046.208-.5.463-1.018.727-1.528.216-.53.446-1.052.66-1.533l.038-.408c.033-.087.09-.152.086-.049.14-.383-.058-.039-.048-.24.051-.226.134-.28.127-.129.048-.361.129-.868.235-1.371.027-.126.055-.251.082-.375l.056-.369a5.425,5.425,0,0,1,.145-.639l.008.151c.131-.578-.111-.685.067-1.21l0,.1c.088-.63.085-1.3.126-1.933.009-.158.017-.313.026-.465s-.006-.3-.008-.445a7.364,7.364,0,0,1,.036-.805,1.663,1.663,0,0,1-.085-.707c.007-.305-.063-.589-.165-.618a10.479,10.479,0,0,0-.026-1.562c-.024-.276-.211-.375-.312-.7l.1-.032-.226-.419.066-.271-.107-.3c.026.125.02.274-.015.263a3.7,3.7,0,0,1-.172-.775,1.169,1.169,0,0,1-.042-.438l-.492-1.075c.05.008.132.188.212.325-.32-.552.068-.15-.226-.655,0,.082-.075-.015-.1-.019a5.045,5.045,0,0,0-.564-1.307l.108.05a18.827,18.827,0,0,0-1.416-2.448c.154.32,0,.321-.158.084l.037-.162c-.156-.118.119.28-.151,0-.2-.3-.036-.273.121-.125l-.3-.335c.013-.041.09.032.142.029-.167-.1-.369-.687-.627-.824l.012-.041-.4-.518c-.124-.147-.25-.267-.365-.389l-.722-.758c-.083.057-.277-.189-.494-.308-.409-.416-.838-.912-1.368-1.381-.412-.28-.165-.028-.377-.12.028-.092-.541-.508-.208-.34l-.81-.576-.408-.274-.6-.312c.079.092.182.173.107.164-.173-.088-.355-.261-.309-.284l.049.019c-.55-.251-1.093-.688-1.679-1.006-.285-.171-.567-.337-.836-.476-.134-.07-.265-.132-.392-.185a2.854,2.854,0,0,0-.381-.091l.054.01-.967-.249c-.424-.172.28.03-.019-.14a6.49,6.49,0,0,1-.707-.192c-.217-.05-.415-.1-.608-.161a8,8,0,0,0-1.183-.283,3.715,3.715,0,0,0-1.542-.38l-.943-.12a4.844,4.844,0,0,1-.814-.1l.049.066c-.242.05-.287-.05-.462-.074.023.05.256.07.106.1-1.011-.057-2.048.018-3.1.025-.525.021-1.047.1-1.573.153l-.786.088-.767.169c-.745.174-.334.422-1.3.517l.229-.181c-.717.281-1.439.584-2.176.838a18.73,18.73,0,0,0-2.049,1.047c.064-.069.047-.106.18-.168a2.431,2.431,0,0,0-.978.657c-.2.114-.079-.026-.221.019-.3.128-.629.5-.807.533-.031.007.055-.078.1-.115-.146.154-.781.569-.566.529-.474.3-.844.665-1.218.914-.145.279-.748.607-.711.785-.075-.142-.834.556-.995.893.045-.122-.244.194-.2.045-.272.3-.5.6-.391.6-.674.411-.822,1.257-1.276,1.439l-.483.747-.4.76-.4.733-.2.359-.163.373c-.055-.05.048-.334.2-.579s.284-.489.2-.512c-.119.229-.221.436-.314.631s-.145.4-.217.586a9.555,9.555,0,0,1-.531,1.2c-.134.228,0-.162.015-.254-.213.467-.35.946-.526,1.394l-.24.671a3.03,3.03,0,0,0-.17.671.546.546,0,0,1,.007-.2c-.04.176-.127.4-.052.4l.025-.175c.172-.245.035.748.082.79-.127-.345-.273.852-.41.325-.016.118-.019.269.035.253-.057.167-.1.215-.109.03a1.357,1.357,0,0,0-.04.524,1.677,1.677,0,0,1-.03.477c-.035-.008-.03-.126-.062-.193a3.369,3.369,0,0,1-.057,1.086c-.017-.032-.053.021-.03-.124-.148.836.05,1.444-.076,2.357-.139-.276-.066.312-.2.36a3.255,3.255,0,0,0,.042.5l.055-.2c.019.436.135.816.11,1.19l-.071-.32.066.813.027-.464c.09.433.165-.057.157.519-.016-.115.008.432-.017.662h0a2.326,2.326,0,0,1,.166.738c-.029.089-.155-.044-.174.013.148.192.169,1.006.355,1.24-.049-.081-.118-.071-.125-.04l.132.153c.022.2.016.232-.047.213.135.59.116-.224.224.487-.021-.053-.027-.023-.07-.133.071.353.172.687.27,1.013s.243.628.326.949c-.059.228-.23-.533-.26-.288.177.448.385.9.584,1.349s.466.861.643,1.288l-.062-.161c.228.029.207.665.506,1.036-.073-.09-.165-.081-.134-.062a16.847,16.847,0,0,0,1.271,1.863l-.111-.068c.188.323.568.8.793,1.138.11.067.242.256.213.1a3.172,3.172,0,0,0,.221.413c.09.122.187.238.285.349.2.222.41.426.619.624s.406.4.615.586a3.845,3.845,0,0,1,.567.611c-.1-.088-.262-.18-.184-.109l.725.6c0-.112-.059-.121-.162-.3a1.958,1.958,0,0,1,.509.346c-.342-.244-.09.112.032.252-.008-.037.059-.021.063-.05.3.407.168-.08.64.4l-.054.013a5.284,5.284,0,0,1,.637.394c.035.144-.238-.123-.3-.07a7.623,7.623,0,0,1,.938.554,4.246,4.246,0,0,1-.49-.259,1.53,1.53,0,0,0,.526.461l-.022-.016.524.377-.124-.111a1.53,1.53,0,0,1,.7.268c.112.067.226.141.353.206a2.341,2.341,0,0,0,.437.138c-.628-.133-.133.034-.225.109.133.1.343.235.265.232.311.054.429.282.868.353,0,.04.291.144.195.193.367.147-.061-.1-.013-.121a7.874,7.874,0,0,1,.973.4,4.722,4.722,0,0,0,1.182.4c.742.145.911.052,1.592.172.214.112-.215.075-.215.075a2.932,2.932,0,0,0,.99.238c-.077.019-.009.055.092.11.286.034.212-.1.577.012a1.042,1.042,0,0,1-.307.094c.342.02.682.007,1.031.028.084.074-.221.059-.349.079a3.046,3.046,0,0,0,1.148,0l-.248-.047c.143,0,.065.09-.042.094-.342.023-.477-.106-.491-.144l.248.015c-.227-.24-.988-.117-1.484-.206l.232-.113-.528.043c-.1-.06-.155-.15.09-.131-.334-.137-.318-.021-.6-.172-.03-.021-.013-.024.018-.022l-.346-.043c.073-.013-.031-.116.17-.042-.58-.237-1-.143-1.2-.309l.053,0c-.839-.206-.113.087-.767-.006l-.323-.4-.117.073c-.083-.035-.245-.1-.2-.132-.338-.045.037.063-.169.062a4.7,4.7,0,0,0-.7-.3c-.23-.109-.42-.208-.428-.307-.173.008.344.236-.093.089-.039-.225-.492-.2-.809-.449.152-.033.462.173.149-.073a.787.787,0,0,1-.481-.18,4.49,4.49,0,0,0-.474-.339c-.077.1-.64-.326-1.136-.577.036.007-.812-.658-1.192-1.005l.025-.008c-.152.035-.585-.276-.882-.524.063-.051.13-.023.312.084-.095-.074-.18-.16-.271-.239a1.152,1.152,0,0,1-.372-.233l.132-.012a7.879,7.879,0,0,1-1.2-1.048c-.09.036.155.547-.335.1.019-.053.063-.129.194-.015a1.052,1.052,0,0,1-.227-.22l.237.138c-.165-.235-.15-.062-.3-.236.054-.044-.076-.158-.014-.172.044.038.112.166.19.211a2.3,2.3,0,0,1-.368-.564c-.014.043-.07.063-.2-.07-.329-.354-.048-.177-.209-.408-.123-.049-.266-.328-.352-.269a.336.336,0,0,1-.072-.226c-.186-.171-.708-.924-.629-.634l.033.056-.028-.03h0a4.98,4.98,0,0,1-.4-.481,6.23,6.23,0,0,1-.32-.552,11.843,11.843,0,0,0-.628-1.09l.031-.016c-.284-.4-.5-.956-.727-1.233-.062-.13-.09-.333-.025-.295a2.247,2.247,0,0,1-.385-.866c.185.327.006-.141.173.341a3.28,3.28,0,0,0-.389-1.036c.144.133-.018-.377-.122-.582l.055.337c-.1-.237-.171-.451-.242-.668l.154.081a5.737,5.737,0,0,0-.382-1.287,2.122,2.122,0,0,1-.227-1.145c-.12-.241.023.538-.106.327a9.554,9.554,0,0,1,.022-1.083c-.02-.617-.277-.544-.292-1.194-.037.086-.145.177-.209-.308-.007-.458.148-.569.2-.286.009.108,0,.161-.016.158.022.145.05.334.087.152l-.045-.055c.032-.227,0-.846.072-.7-.057-.338-.076-.143-.085.111.044-.58-.077-.9.014-1.5-.028.094-.082.181-.077.086.1-.872-.06-.387-.049-.984.081-.333.147.131.123-.469.062-.36.115-.066.142.08a2.273,2.273,0,0,1-.006-.393,3.505,3.505,0,0,1,.078-.349c.059-.218.125-.4.156-.555l-.009.285a3.447,3.447,0,0,1,.049-.447l-.108.148c.04-.163.061-.3.1-.294-.028-.18-.158.109-.18-.243.081-.213.047-.688.19-.737-.166.684.115-.055.039.533a1.958,1.958,0,0,1,.067-.415c.019-.022.016.028.017.074.254-.628-.05-.324.124-1,.039.1.156-.126.171-.239-.07.27-.135.1-.117-.159a3.179,3.179,0,0,0,.15-.707l-.089.253a1.273,1.273,0,0,1,.12-.621c.056-.01-.066.278-.007.179.015-.363.379-.7.474-1.179.117-.195.117.022.212-.151.1-.542.306-.5.481-1.043-.147.111-.142.147-.042-.25l-.352.867.149-.591c-.119.257-.222.555-.287.711.039-.295.062-.254-.067-.161.285-.3.268-.726.541-1.1l.182.1a5.011,5.011,0,0,0,.414-.86,6.53,6.53,0,0,1,.538-.967l-.176.221c-.01-.144.27-.467.388-.728.046.061.157-.076.257-.154-.052-.017.385-.506.319-.652l.308-.257c.453-.537.309-.782.8-1.265-.08.2.165.006-.1.377.152-.166.3-.308.265-.343.121-.068.352-.528.541-.637a.668.668,0,0,1,.186-.351c.029-.011.024.025.024.025-.031-.032.25-.315.034-.216a4.677,4.677,0,0,0,1.044-.817c.175-.163.345-.328.511-.463a2.274,2.274,0,0,1,.5-.276c.384-.311.842-.7,1.209-.957-.013.032.018.03-.059.068.565-.267.217-.366.863-.674.367-.09-.29.248-.075.167.207.156.7-.489,1.194-.578l-.1.062a14.009,14.009,0,0,0,1.3-.7s-.018.031.011.033a6.084,6.084,0,0,1,1.553-.816c-.138.146-.228.134-.1.183.236-.1-.121-.112.354-.313.174-.008.531-.1.61-.011-.155.039-.3.109-.452.161a.875.875,0,0,0,.424-.1,2.79,2.79,0,0,1,.417-.138l-.016.061c.705-.2.682-.338,1.455-.526l-.088-.02c.4-.234.373.012.782-.162l.153.118a14.254,14.254,0,0,1,1.481-.374c-.283.116-.867.282-1.223.392a5.225,5.225,0,0,0,1.086-.246,1.368,1.368,0,0,1-.364.082,3.271,3.271,0,0,1,1.354-.267c-.087.275,1.478-.025,1.881.257a9.035,9.035,0,0,1,1.5.065c.5.1,1.026.211,1.6.29-.368-.27.335.045.306-.179a.977.977,0,0,1,.389.09l.765.331c.172.109-.261-.018-.248.036.566.162.216.15.576.3-.056-.095.228-.056.543.055l-.428-.213a1.275,1.275,0,0,1,.726.247,1.706,1.706,0,0,0,.713.3l-.268-.026c.205.054.572.188.944.307l.278.084.256.1a1.733,1.733,0,0,0,.423.1c.057.055.122.152-.054.085.446.243.993.411,1.471.66a7.856,7.856,0,0,1,1.239.742l-.095,0c.167.09.345.078.5.271-.022.011-.091,0-.022.053a3.068,3.068,0,0,1,.641.4l-.207-.081a5.619,5.619,0,0,0,1.022.7,9.793,9.793,0,0,1,.918.654c-.113.122.453.658.689.97l-.025.006a13.992,13.992,0,0,0,1.086,1.1,14.374,14.374,0,0,1,1.005,1.1,3.712,3.712,0,0,0,.321.569c.138.219.272.482.432.743a9.4,9.4,0,0,1,.843,1.6c-.045-.16.12-.032.216.133.08.24.4.58.253.6l-.036-.082c-.051.232.23.666.345,1.052l.2-.007a8.843,8.843,0,0,0,.532,1.771,4.389,4.389,0,0,1,.311,1.453,5.669,5.669,0,0,1,.246.786l-.1,0c.043.348.075.609.11.891l.069.449a3.741,3.741,0,0,1,.066.562l-.08-.17c.017.486.319.594.348,1.05l-.143.143c.086.858-.15,1.713-.042,2.565-.021-.015-.063-.044-.062-.183.015.407-.285,1.526-.054,1.412-.139-.01-.136.87-.168,1.339l-.078-.09a2.551,2.551,0,0,1-.047.965c-.045.123-.1.091-.038-.07-.158.406.007.351-.175.846l-.012-.207a1.739,1.739,0,0,0-.083.659,1.806,1.806,0,0,1-.422.819.934.934,0,0,1-.1.569c-.043.021-.03-.077-.023-.126a3.761,3.761,0,0,0-.181.46l-.142.376a2.4,2.4,0,0,1-.316.65c-.034,0-.063.018-.09.052.258-.531.47-.957.457-.914-.084-.036-.3.385-.256-.005a6.258,6.258,0,0,1-.49,1.421.2.2,0,0,1-.055.04l.012-.048a1.277,1.277,0,0,0-.116.271,3.784,3.784,0,0,0-.223.314c-.094.01-.318.444-.443.644.1.036-.08.293.141.087-.026.029.013-.045.092-.182a.811.811,0,0,0,.044-.092v.019l.3-.509a1.28,1.28,0,0,1-.3.572c-.008.138-.023.288-.036.37-.284.211-.678.7-.815.71l-.657.982c-.108.165-.206.328-.289.477a1.915,1.915,0,0,0-.209.386c-.122.17-.2.142-.275.179a2.264,2.264,0,0,0,.187-.269c-.242.337-.808.918-.781,1.082-.4.341.122-.29-.366.233l.043-.093a6.352,6.352,0,0,0-1.346,1.3,5.867,5.867,0,0,1-1.579,1.2c.1-.051.144-.078.174-.073a5.985,5.985,0,0,1-.576.35l-.586.349a13.417,13.417,0,0,1-1.181.7c-.409.207-.819.413-1.23.6a3.553,3.553,0,0,1-.632.239q-.322.1-.644.18a2.009,2.009,0,0,0-.773.4l-.134-.064c-.153.092-.312.168-.469.253a3.566,3.566,0,0,1-1.025.185,4.383,4.383,0,0,0-.541.077,3.257,3.257,0,0,0-.621.144l.132.053c-.336.037-1.052.2-1.007.112a.3.3,0,0,1-.235.074l-.017-.054c-.135.035-.269.077-.4.106l-.41.068c-.645-.008.083-.227-.848-.191-.343.039-.983.213-.854.244.141,0,.36.016.372.072l-.32.046c-.055.167-.311.349.494.425l.554-.129.185.071-.471.029a1.066,1.066,0,0,0,.624-.068.443.443,0,0,0,.241.076l.534-.187c.073.055-.232.156.138.144.247-.111-.259-.107.156-.219.272.035.2.107.505,0,.05.035-.012.072-.133.11a4.791,4.791,0,0,0,.858-.242,2.242,2.242,0,0,0,.573-.045c.194-.038.349-.074.353.007a3.272,3.272,0,0,1,.7-.312c-.408.3.933-.229.87-.006.294-.231,1.166-.49,1.715-.778a.326.326,0,0,1-.135.084,4.412,4.412,0,0,1,.667-.142c-.013-.147.459-.41.683-.613.439-.063-.162.259.012.319-.066-.093.618-.423.446-.444.329-.067.27-.085.474-.056-.031-.181.265-.147.439-.389.443-.169.184.078.6-.236C370.492,1100.737,370.128,1101.03,370.128,1101.03Zm8.151-8.985h0l-.1.229Zm.444-.926-.2.4c-.047.017-.062-.033-.015-.125C378.507,1091.454,378.63,1091.245,378.722,1091.119Zm-1.6,1.573c.069-.141.114-.176.143-.185l-.133.241v.022A.153.153,0,0,1,377.124,1092.692Z" transform="translate(-337.425 -1060.348)" fill="#fff"/><path d="M422.463,1130.3c-.01.021-.013.034-.027.06l.068-.07,0-.064Z" transform="translate(-382.799 -1097.644)" fill="#fff"/><path d="M347.137,1133.612l-.011-.019a.15.15,0,0,1,.015.044A.142.142,0,0,1,347.137,1133.612Z" transform="translate(-342.603 -1099.442)" fill="#fff"/><path d="M429.386,1096.574l-.024.007.044.083Z" transform="translate(-386.496 -1079.684)" fill="#fff"/><path d="M354.794,1142.847a.165.165,0,0,0,.043.064A.211.211,0,0,0,354.794,1142.847Z" transform="translate(-346.696 -1104.382)" fill="#fff"/><path d="M359,1145.93l.276.209C359.163,1146.045,359.075,1145.98,359,1145.93Z" transform="translate(-348.943 -1106.027)" fill="#fff"/><path d="M362.416,1148.03a.113.113,0,0,0,.053-.022l0,0Z" transform="translate(-350.764 -1107.135)" fill="#fff"/><path d="M339.409,1093.332l.014-.072C339.452,1093.091,339.424,1093.2,339.409,1093.332Z" transform="translate(-338.484 -1077.869)" fill="#fff"/><path d="M338.114,1112.083c-.032-.091-.064-.181-.09-.276C338.04,1111.964,338.057,1112.085,338.114,1112.083Z" transform="translate(-337.745 -1087.814)" fill="#fff"/><path d="M349.892,1074.974v0l.042-.046Z" transform="translate(-344.079 -1068.131)" fill="#fff"/><path d="M337.977,1110.925a1.689,1.689,0,0,0,.02.411A2.625,2.625,0,0,0,337.977,1110.925Z" transform="translate(-337.717 -1087.343)" fill="#fff"/><path d="M379,1153.21l.089.018c0-.006.005-.012.013-.016Z" transform="translate(-359.616 -1109.913)" fill="#fff"/><path d="M379.219,1153.206l.1-.007A.226.226,0,0,0,379.219,1153.206Z" transform="translate(-359.732 -1109.906)" fill="#fff"/><path d="M379.65,1153.171l-.214.014A.491.491,0,0,0,379.65,1153.171Z" transform="translate(-359.848 -1109.892)" fill="#fff"/><path d="M373.719,1152.222l-.035.028A.045.045,0,0,0,373.719,1152.222Z" transform="translate(-356.778 -1109.386)" fill="#fff"/><path d="M372.185,1151.84a4.565,4.565,0,0,0,.67.228l.029-.022C372.756,1152.068,372.365,1151.823,372.185,1151.84Z" transform="translate(-355.978 -1109.181)" fill="#fff"/><path d="M366.154,1148.819c.185.091.38.163.569.246-.088-.073-.2-.17.065-.082C366.1,1148.606,366.906,1149.124,366.154,1148.819Z" transform="translate(-352.759 -1107.569)" fill="#fff"/><path d="M362.349,1146.794c.308.128.023-.051.049-.062C362.2,1146.664,362.149,1146.643,362.349,1146.794Z" transform="translate(-350.66 -1106.427)" fill="#fff"/><path d="M342.651,1125.4l.1-.007C342.625,1125.171,342.715,1125.407,342.651,1125.4Z" transform="translate(-340.214 -1095.015)" fill="#fff"/><path d="M339.685,1120.5a1.92,1.92,0,0,0,.019.26l.121.089A2.532,2.532,0,0,1,339.685,1120.5Z" transform="translate(-338.631 -1092.456)" fill="#fff"/><path d="M340.071,1116.538l.04.1-.138-.4Z" transform="translate(-338.785 -1090.18)" fill="#fff"/><path d="M355.2,1072.32l-.131-.037C354.96,1072.416,355.01,1072.532,355.2,1072.32Z" transform="translate(-346.813 -1066.718)" fill="#fff"/><path d="M374.466,1062.843a1.18,1.18,0,0,0,.562-.066A2.658,2.658,0,0,0,374.466,1062.843Z" transform="translate(-357.195 -1061.645)" fill="#fff"/><path d="M425.8,1091.4l-.1-.175.159.343Z" transform="translate(-384.537 -1076.827)" fill="#fff"/></g><path d="M334.141,1107.034c-.03-.077-.1-.033-.077.179l.125.149Z" transform="translate(-333.602 -1083.197)" fill="#fff"/><path d="M333.923,1109.024c.069.248.184.526.283.357-.125-.237-.081-.3-.228-.558-.024-.213.019-.373.064-.339-.034-.074.009-.329-.07-.442a1.99,1.99,0,0,0,.031.992C333.979,1109.115,333.945,1109.041,333.923,1109.024Z" transform="translate(-333.529 -1083.755)" fill="#fff"/><path d="M354.536,1148.138l-.1-.092A.844.844,0,0,0,354.536,1148.138Z" transform="translate(-344.479 -1105.106)" fill="#fff"/><path d="M380.415,1157.611c-.1,0-.142.007-.147.018C380.361,1157.626,380.437,1157.622,380.415,1157.611Z" transform="translate(-358.266 -1110.211)" fill="#fff"/><path d="M385.212,1157.985h-.132A.312.312,0,0,0,385.212,1157.985Z" transform="translate(-360.835 -1110.411)" fill="#fff"/><path d="M354.651,1148.244l.258.238C354.95,1148.465,354.782,1148.352,354.651,1148.244Z" transform="translate(-344.593 -1105.212)" fill="#fff"/><path d="M335.177,1115.948a1,1,0,0,0-.058-.178l.039.17A.076.076,0,0,1,335.177,1115.948Z" transform="translate(-334.168 -1087.879)" fill="#fff"/><path d="M345.243,1139.977l-.071-.078a.576.576,0,0,0-.1-.034Z" transform="translate(-339.483 -1100.739)" fill="#fff"/><path d="M339.938,1132.316c.048.088.152.067.209.078a.433.433,0,0,1-.172-.151C339.959,1132.25,339.945,1132.272,339.938,1132.316Z" transform="translate(-336.74 -1096.671)" fill="#fff"/><path d="M334.775,1118.238l-.044-.117Z" transform="translate(-333.961 -1089.134)" fill="#fff"/><path d="M350.161,1144.966a.088.088,0,0,0,.006.054C350.175,1145.01,350.171,1144.991,350.161,1144.966Z" transform="translate(-342.196 -1103.462)" fill="#fff"/><path d="M335.88,1096.5c-.006,0-.012,0-.017,0C335.866,1096.526,335.871,1096.535,335.88,1096.5Z" transform="translate(-334.565 -1077.594)" fill="#fff"/><path d="M333.609,1106.977l0-.07a.142.142,0,0,0-.055-.016Z" transform="translate(-333.332 -1083.14)" fill="#fff"/><path d="M394.061,1157.309h-.018C393.938,1157.337,394,1157.326,394.061,1157.309Z" transform="translate(-365.588 -1110.05)" fill="#fff"/><path d="M433.61,1096.021c.019.43-.284-.646-.221-.005C433.412,1095.948,433.685,1096.547,433.61,1096.021Z" transform="translate(-386.615 -1077.223)" fill="#fff"/><path d="M335.253,1116.393l.028.174A1.433,1.433,0,0,0,335.253,1116.393Z" transform="translate(-334.24 -1088.212)" fill="#fff"/><path d="M433.4,1096.255h0l.007.066C433.4,1096.294,433.4,1096.278,433.4,1096.255Z" transform="translate(-386.623 -1077.463)" fill="#fff"/><path d="M412.6,1149.329a.265.265,0,0,0-.1.021C412.509,1149.357,412.534,1149.355,412.6,1149.329Z" transform="translate(-375.471 -1105.791)" fill="#fff"/><path d="M399.053,1155.562l.167-.047A1.6,1.6,0,0,0,399.053,1155.562Z" transform="translate(-368.293 -1109.093)" fill="#fff"/><path d="M418.613,1143.98a.973.973,0,0,0,.194-.166.253.253,0,0,0-.037.017A.493.493,0,0,1,418.613,1143.98Z" transform="translate(-378.733 -1102.847)" fill="#fff"/><path d="M423.939,1138.174l-.058.044-.068.1Z" transform="translate(-381.509 -1099.837)" fill="#fff"/><path d="M346.077,1075.218a.593.593,0,0,1-.183.068C345.986,1075.29,345.642,1075.706,346.077,1075.218Z" transform="translate(-339.897 -1066.235)" fill="#fff"/><path d="M335.126,1116.148a.148.148,0,0,1,.059.1c-.008-.042-.016-.082-.024-.121C335.145,1116.121,335.131,1116.121,335.126,1116.148Z" transform="translate(-334.172 -1088.068)" fill="#fff"/><path d="M417.7,1142.287l.442-.381C418.012,1142.009,417.852,1142.147,417.7,1142.287Z" transform="translate(-378.245 -1101.829)" fill="#fff"/><path d="M397.423,1059.657l-.133-.022A.394.394,0,0,0,397.423,1059.657Z" transform="translate(-367.352 -1057.917)" fill="#fff"/><path d="M421.122,1138.843a1.645,1.645,0,0,0,.274-.2.265.265,0,0,0,.026-.067Z" transform="translate(-380.072 -1100.053)" fill="#fff"/><path d="M345.939,1075.365h0Z" transform="translate(-339.943 -1066.313)" fill="#fff"/><path d="M337.076,1068.29c.29-.472.025-.288.022-.428.315-.589.242-.213.415-.369a4.937,4.937,0,0,0,.215-.528,2.044,2.044,0,0,1,.237-.421c.031-.006.074-.05.054.022.181-.411.77-1.049.986-1.534a.17.17,0,0,1,.07-.029c-.106.02-.166-.013-.191-.056.168-.188.253-.4.381-.415a.405.405,0,0,0-.117.216l.15-.22c.252-.095-.21.295-.141.354a11.544,11.544,0,0,1,.934-1.187c.142.023-.589.709-.159.394l-.442.419c.454-.217-.257.263.18.083a6.439,6.439,0,0,0,.556-.631,3.16,3.16,0,0,1,.576-.609c.086-.168-.113-.031-.027-.2.76-.853.862-.374,1.369-1.052a1.11,1.11,0,0,1,.615-.656l-.078.229c.624-.449.236-.42.939-.832-.085.13-.46.4-.357.344.482-.226.252-.285.575-.527l.137.053c.345-.221.7-.467,1.064-.72a8.071,8.071,0,0,1,1.147-.722c-.029.054-.152.155.056.1.5-.275,1.057-.54,1.612-.782.578-.19,1.155-.362,1.684-.517l.364-.244c.093-.033.189,0,.092.041.428-.069,0-.068.191-.159.236-.068.331-.023.189.046.355-.137.869-.318,1.4-.477.132-.038.263-.081.395-.111l.393-.059a6.089,6.089,0,0,1,.7-.059l-.15.054c.622-.052.669-.318,1.257-.309l-.109.035c.678-.048,1.394-.07,2.069-.111.168-.007.335-.018.5-.019l.475.039a8.163,8.163,0,0,1,.85.12,1.885,1.885,0,0,1,.759-.011c.323.01.623.09.68-.016a12.266,12.266,0,0,0,1.592.456c.286.044.449-.04.805.025l-.016.109.5.01.22.191.333.057c-.128-.039-.263-.118-.235-.144a4.174,4.174,0,0,1,.809.235,1.1,1.1,0,0,1,.4.252l1.2.341c-.042.032-.243-.026-.408-.056.664.124.071.149.68.262-.068-.051.066-.046.087-.061a12.05,12.05,0,0,0,1.351.67l-.122.025a25.451,25.451,0,0,1,2.61,1.426c-.3-.221-.156-.288.113-.139l.041.159c.208.043-.249-.2.146-.064.311.237.137.261-.062.16l.4.248c0,.045-.1-.007-.145.013.2.057.579.578.876.645v.043l.551.4c.159.125.291.249.427.361l.831.722c.081-.062.31.177.554.289.4.484.8,1.047,1.312,1.594.375.371.163.064.356.213-.047.089.407.682.124.412l.649.828.333.4.405.584c-.033-.126-.091-.254-.028-.208.12.17.213.424.16.421l-.036-.042a6.609,6.609,0,0,1,.965,1.84c.126.33.249.651.379.941.065.145.132.283.2.41a2.958,2.958,0,0,0,.182.366l-.028-.05.454.955c.152.461-.164-.25-.094.1a7.423,7.423,0,0,1,.325.706c.066.227.115.44.162.646a8.967,8.967,0,0,0,.342,1.245,1.573,1.573,0,0,0,.005.325c0,.124.01.259.025.4.03.288.084.611.144.941s.127.669.165.987a5.4,5.4,0,0,1-.015.864l.06-.06c.074.248-.021.307-.026.492.048-.028.043-.276.085-.121a15.836,15.836,0,0,1-.076,3.276c-.063.55-.2,1.093-.3,1.636l-.156.812q-.115.4-.229.788c-.214.765.2.524-.194,1.462l-.041-.312a3.055,3.055,0,0,1-.144.591l-.192.582-.419,1.159c-.353.742-.705,1.478-1.016,2.21a.777.777,0,0,1,.066-.25,3.193,3.193,0,0,0-.578,1.1c-.135.207-.083.016-.192.127-.22.255-.335.785-.518.876-.03.016.035-.09.063-.145-.093.2-.616.807-.411.7-.4.442-.633.949-.989,1.27-.125.3-.724.717-.675.894-.094-.144-.777.7-1.03.98.06-.119-.276.183-.214.036-.315.289-.585.575-.475.587-.685.409-1.139,1.123-1.638,1.2l-.716.61-.751.514-.738.5-.366.241-.384.2c-.022-.088.276-.2.53-.376s.507-.322.444-.381c-.223.155-.421.3-.605.437s-.378.232-.561.344a10.956,10.956,0,0,1-1.241.646c-.261.1.116-.133.189-.2a8.379,8.379,0,0,1-1.455.612l-.707.265-.344.14-.346.117c0-.015.1-.056.187-.093-.183.052-.436.087-.4.152l.175-.065c.327.024-.678.4-.7.464.264-.283-.947.189-.506-.2-.118.045-.263.118-.225.158-.184.033-.247.02-.076-.082-.325.11-.429.155-.526.191a1.873,1.873,0,0,1-.494.118c0-.035.118-.067.174-.118a3.773,3.773,0,0,1-1.126.28c.028-.026-.035-.044.12-.067a11,11,0,0,1-2.512.322c.288-.167-.338-.033-.392-.163a3.342,3.342,0,0,1-.53.036l.213.076c-.465-.026-.882.049-1.281-.015l.349-.037-.875-.019.492.075c-.478.044.04.17-.583.1a3,3,0,0,1-.7-.147h0a2.71,2.71,0,0,1-.816-.07c-.083-.056.093-.134.04-.171-.241.068-1.09-.118-1.393-.079.1,0,.118-.07.091-.092l-.2.04c-.2-.083-.232-.1-.186-.149-.627-.178.163.215-.571-.048a1.03,1.03,0,0,1,.162.006c-.372-.115-.739-.194-1.1-.273a5.28,5.28,0,0,1-1.029-.345c-.153-.2.6.183.406-.006-.484-.165-1-.31-1.506-.461a9.41,9.41,0,0,1-1.425-.612l.161.094c-.206.1-.634-.4-1.117-.555.111.054.19-.012.15-.008-.564-.384-1.221-.667-2.122-1.184l.13.037c-.3-.277-.833-.655-1.168-.932-.132-.039-.327-.194-.249-.048-.112-.129-.233-.242-.351-.357s-.227-.236-.344-.345c-.235-.218-.481-.414-.725-.607a6.852,6.852,0,0,1-.7-.594,4.5,4.5,0,0,1-.553-.714c.1.1.258.222.183.138l-.713-.718c-.008.113.052.13.147.33a2.373,2.373,0,0,1-.515-.439c.354.3.088-.08.011-.27,0,.042-.062.006-.071.035-.2-.516-.182.032-.54-.611l.057,0a6.2,6.2,0,0,1-.542-.614c0-.153.209.206.284.175-.245-.326-.647-.539-.748-.919a4.526,4.526,0,0,0,.374.472,3.928,3.928,0,0,0-.324-.686l.014.027-.317-.618.066.166a1.774,1.774,0,0,1-.532-.616l-.235-.379a2.692,2.692,0,0,0-.272-.413c.428.537.127.059.245.056-.05-.172-.136-.428-.076-.373-.219-.255-.173-.517-.487-.877.023-.033-.148-.315-.036-.283-.208-.369-.012.113-.067.1a3.148,3.148,0,0,1-.41-1.05,5.457,5.457,0,0,0-.486-1.253c-.288-.758-.421-.878-.672-1.6-.01-.261.175.173.175.173a6.866,6.866,0,0,0-.255-1.078c.041.072.054-.013.075-.137-.055-.3-.155-.183-.166-.6a1.162,1.162,0,0,1,.183.283c-.086-.354-.2-.7-.292-1.071.045-.107.125.214.184.339a8.07,8.07,0,0,0-.308-1.2l-.019.276c-.013-.155.072-.087.1.024.13.351.047.523.015.548l-.063-.264c-.159.3.2,1.072.266,1.607l-.179-.2.2.531c-.014.124-.084.222-.151-.04,0,.4.131.326.13.672,0,.039-.014.024-.028-.008l.138.362c-.048-.065-.085.087-.123-.147.09.693.384,1.05.341,1.332l-.023-.054c.328.9.122.061.478.7l-.087.541.134.051c.03.094.09.28.037.261.2.319.022-.075.161.1a3.582,3.582,0,0,0,.265.8c.124.252.22.467.164.551.149.119-.139-.435.133,0-.105.209.283.514.394.941-.143-.076-.277-.471-.164-.04a.958.958,0,0,1,.289.49,2.741,2.741,0,0,0,.284.583c.12-.05.461.656.817,1.158a11.226,11.226,0,0,0,.918,1.473h-.027c.179,0,.484.515.8.808-.069.036-.15,0-.327-.154.084.106.18.2.27.3a1.448,1.448,0,0,1,.386.308l-.142-.011c.377.391.8.744,1.254,1.269.091-.04-.228-.548.352-.1-.014.053-.052.132-.208.018a1.3,1.3,0,0,1,.272.221l-.273-.137c.208.238.17.062.35.236-.051.047.1.162.04.178-.052-.038-.143-.169-.234-.214a2.863,2.863,0,0,1,.478.58c.008-.047.063-.071.223.063.4.359.082.188.292.427.122.059.367.3.441.226a.387.387,0,0,1,.151.21c.253.131,1.055.772.868.493l-.053-.048.039.024h0a6.032,6.032,0,0,1,.577.387l.589.391c.392.264.781.535,1.18.751l-.018.03a10.453,10.453,0,0,0,1.466.623c.143.069.313.222.234.23.388.146.429.165.974.414-.414-.087.115.1-.418-.106a4.072,4.072,0,0,0,1.168.418c-.216.016.344.246.594.309l-.335-.191c.275.086.509.181.747.276l-.166.065a5.41,5.41,0,0,0,1.479.355,4.993,4.993,0,0,1,1.281.328c.3-.037-.583-.148-.305-.2.5.092.993.339,1.153.364.685.161.665-.051,1.384.06-.09-.047-.165-.163.378-.175.5.041.611.208.288.225-.122,0-.18-.019-.174-.032-.165.007-.382.014-.185.07l.069-.039c.249.056.951.087.783.147.387-.021.167-.061-.117-.1a10.012,10.012,0,0,0,1.693.075c-.108-.018-.207-.062-.1-.067.986,0,.431-.1,1.094-.154.382.045-.125.16.542.073.414.022.1.107-.064.149a3.372,3.372,0,0,1,.442-.049c.141-.02.276-.031.4-.037.255-.014.48-.01.656-.029l-.318.082a4.663,4.663,0,0,1,.508-.1l-.2-.055c.19-.014.35-.038.352,0,.185-.084-.17-.115.2-.248.256,0,.753-.149.857-.077-.79.108.111.1-.553.229a3.046,3.046,0,0,1,.476-.073c.03.005-.021.031-.072.043.767-.081.316-.207,1.082-.4-.082.086.208.07.33.025-.311.078-.174-.064.1-.182a4.046,4.046,0,0,0,.78-.233l-.3.053a4.449,4.449,0,0,1,.649-.285c.044.036-.289.142-.165.119.331-.239.866-.195,1.354-.453.253-.047.066.1.286.052a12.11,12.11,0,0,0,1.207-.513c-.2,0-.223.036.15-.234l-.929.513.561-.407a7.963,7.963,0,0,1-.767.4c.275-.179.245-.162.083-.156.442-.072.744-.44,1.231-.58l.079.195a3.977,3.977,0,0,0,.965-.493,8.369,8.369,0,0,1,1.05-.687l-.29.133c.069-.139.513-.325.766-.519.013.074.2-.008.338-.044-.043-.033.582-.429.572-.6l.407-.189c.659-.452.617-.682,1.186-1.183-.12.212.17.016-.174.4.19-.171.368-.316.339-.355.14-.068.46-.545.678-.654a.785.785,0,0,1,.248-.358c.033-.011.024.025.024.025-.016-.018.281-.35.055-.223a5.689,5.689,0,0,0,1.059-1.021c.176-.2.352-.4.516-.571a2.806,2.806,0,0,1,.434-.455l.986-1.42c0,.04.028.021-.027.1.416-.559.053-.474.523-1.108.306-.286-.165.39,0,.2.245.019.491-.82.841-1.234l-.044.123c.248-.332.356-.938.658-1.529,0,0,0,.037.03.018.121-.447.346-1.28.542-1.885.017.216-.055.288.073.206.086-.274-.167.028,0-.514.107-.159.3-.529.395-.558-.04.176-.115.342-.171.513a.935.935,0,0,0,.209-.448,3.561,3.561,0,0,1,.095-.489l.044.05c.19-.811.058-.855.288-1.712l-.064.08c-.025-.5.148-.385.128-.88l.16-.121c.015-.321.052-1.126.078-1.7a8.01,8.01,0,0,1,.021,1.427,6.449,6.449,0,0,0,.109-1.245,1.618,1.618,0,0,1-.036.414,10.544,10.544,0,0,1-.042-1.541c.132.064.17-.348.2-.832a8.292,8.292,0,0,1,.1-1.274,16.913,16.913,0,0,1-.114-1.7c-.066-.578-.126-1.182-.234-1.831-.137.5-.064-.378-.265-.257a3.288,3.288,0,0,1-.092-.436l-.1-.924c.006-.229.118.269.159.231-.151-.655.019-.3-.037-.743-.052.109-.165-.2-.233-.576l.039.551a3.33,3.33,0,0,1-.213-.849,2.2,2.2,0,0,0-.27-.839l.167.258c-.1-.222-.257-.644-.426-1.058l-.129-.305-.159-.271a2.208,2.208,0,0,0-.3-.4c-.014-.088-.01-.215.1-.03-.12-.264-.261-.537-.408-.81a6.626,6.626,0,0,0-.477-.8,10.146,10.146,0,0,1-.86-1.4l.09.046a3.111,3.111,0,0,1-.392-.516c.027,0,.1.04.038-.042a4.02,4.02,0,0,1-.565-.653l.194.161a7.32,7.32,0,0,0-.885-1.1c-.309-.277-.62-.519-.948-.855.11-.095-.426-.815-.746-1.126l.027-.005c-.482-.452-.92-.806-1.353-1.141s-.917-.585-1.414-.932a4.809,4.809,0,0,0-.542-.51c-.23-.186-.522-.352-.815-.54-.6-.363-1.225-.787-1.768-1.067.155.106-.083.095-.284.015-.243-.152-.754-.243-.654-.353l.09.047a2.542,2.542,0,0,0-1.111-.6l-.14.148a5.021,5.021,0,0,0-.906-.442,6.086,6.086,0,0,0-1.042-.327,5.7,5.7,0,0,1-1.623-.481,6.68,6.68,0,0,0-.933-.085l.033-.1-1.011-.181-.514-.078-.3-.041-.346-.011.209-.061c-.561-.035-.728.253-1.237.233l-.148-.158a10.94,10.94,0,0,0-2.915.063c.014-.023.039-.068.2-.082-.462-.024-1.777.11-1.583.283-.029-.126-1,.128-1.5.287l.059-.117a3.364,3.364,0,0,1-1,.458c-.144.024-.144-.045.051-.069-.485.071-.343.185-.927.281l.2-.116a1.256,1.256,0,0,0-.678.3,2.242,2.242,0,0,1-1,.243,1.15,1.15,0,0,1-.561.314c-.05-.018.043-.074.09-.1a4.745,4.745,0,0,0-.528.18c-.149.07-.275.151-.4.221a3,3,0,0,1-.732.35.119.119,0,0,0-.113-.011c.6-.287,1.087-.515,1.044-.486-.035-.084-.53.137-.193-.166a8.246,8.246,0,0,1-1.46.9.3.3,0,0,1-.077,0l.044-.033a1.286,1.286,0,0,0-.291.159c-.151.074-.248.12-.386.2-.091-.033-.551.287-.783.424.071.073-.237.242.087.141-.04.016.037-.036.187-.132a1.083,1.083,0,0,0,.092-.068l-.011.017.567-.352a1.637,1.637,0,0,1-.6.411c-.084.126-.179.26-.234.331a4.791,4.791,0,0,0-.677.213,2.773,2.773,0,0,1-.471.172l-1.036.853c-.17.144-.332.283-.464.419a2.42,2.42,0,0,0-.289.406.492.492,0,0,1-.317.175,2.938,2.938,0,0,0,.243-.279c-.313.349-1.009.942-1,1.11-.469.357.147-.319-.409.262l.045-.108a7.986,7.986,0,0,0-1.373,1.592,8.465,8.465,0,0,1-1.333,1.784c.086-.088.129-.132.161-.14a4.03,4.03,0,0,0-.444.609l-.4.649a11.567,11.567,0,0,0-.741,1.345c-.214.466-.429.93-.656,1.384a6.466,6.466,0,0,0-.31.689c-.1.231-.2.458-.306.682a2.442,2.442,0,0,0-.228.94l-.144.082c-.02.2-.021.4-.033.6a4.415,4.415,0,0,1-.362,1.1,5.6,5.6,0,0,0-.211.58,3.2,3.2,0,0,0-.068.715l.091-.121c-.07.37-.138,1.183-.21,1.11a.36.36,0,0,1,0,.272l-.057,0c-.005.155-.019.308-.018.463l.025.465c-.077.713-.216-.13-.28.921,0,.394.107,1.114.152.967.011-.157.055-.4.112-.41l.011.354c.162.066.318.329.476-.52l-.071-.6.09-.187-.02.5a1.191,1.191,0,0,0,0-.666.465.465,0,0,0,.1-.242l-.126-.6c.074-.063.1.272.183-.111-.032-.278-.184.244-.163-.21.118-.273.166-.182.153-.521.049-.041.065.034.064.166a5.566,5.566,0,0,0,.034-.945,2.536,2.536,0,0,0,.133-.595c.044-.205.1-.365.174-.335a3.509,3.509,0,0,1,.073-.8c.057.529.265-.987.424-.8a1.9,1.9,0,0,1,.17-.87,10.16,10.16,0,0,0,.325-1.051.383.383,0,0,1-.028.167,4.685,4.685,0,0,1,.333-.63c-.109-.1.112-.625.169-.941.317-.35.028.317.207.243-.112-.026.237-.751.087-.655.223-.274.165-.25.344-.357-.124-.134.1-.308.166-.6.334-.384.208-.029.446-.522C337.274,1067.845,337.076,1068.29,337.076,1068.29Zm9.1-9.054v0l-.241.122Zm.991-.479-.432.2c-.05-.014-.027-.064.073-.11C346.761,1058.9,347,1058.8,347.164,1058.758Zm-2.411.48c.146-.105.208-.12.238-.114l-.262.172-.012.021A.17.17,0,0,1,344.753,1059.238Z" transform="translate(-333.08 -1055.951)" fill="#fff"/><path d="M357.6,1063.541c-.021.015-.031.026-.059.044l.1-.036.038-.06Z" transform="translate(-346.137 -1059.975)" fill="#fff"/><path d="M354.383,1147.983l.017.016a.227.227,0,0,1-.031-.041A.192.192,0,0,1,354.383,1147.983Z" transform="translate(-344.443 -1105.059)" fill="#fff"/><path d="M394.916,1059.1l0-.025-.1,0Z" transform="translate(-366.035 -1057.619)" fill="#fff"/><path d="M345.314,1138.433a.2.2,0,0,0-.028-.08A.265.265,0,0,0,345.314,1138.433Z" transform="translate(-339.595 -1099.933)" fill="#fff"/><path d="M341.918,1133.543l-.162-.336C341.822,1133.355,341.875,1133.46,341.918,1133.543Z" transform="translate(-337.711 -1097.186)" fill="#fff"/><path d="M339.945,1130.133a.1.1,0,0,0-.055-.016v0Z" transform="translate(-336.715 -1095.537)" fill="#fff"/><path d="M398.341,1154.256l.074-.023C398.583,1154.164,398.468,1154.208,398.341,1154.256Z" transform="translate(-367.913 -1108.389)" fill="#fff"/><path d="M378.182,1156.571c.1,0,.2-.005.309,0C378.324,1156.537,378.194,1156.515,378.182,1156.571Z" transform="translate(-357.153 -1109.638)" fill="#fff"/><path d="M417.594,1142.765v0l.048-.044Z" transform="translate(-378.189 -1102.265)" fill="#fff"/><path d="M379.288,1156.63a1.994,1.994,0,0,0-.443-.024A2.928,2.928,0,0,0,379.288,1156.63Z" transform="translate(-357.507 -1109.673)" fill="#fff"/><path d="M334.652,1112.228l-.01-.1c-.007,0-.012,0-.017-.01Z" transform="translate(-333.905 -1085.932)" fill="#fff"/><path d="M334.606,1112l-.017-.106A.25.25,0,0,0,334.606,1112Z" transform="translate(-333.885 -1085.81)" fill="#fff"/><path d="M334.511,1111.414l.036.224A.546.546,0,0,0,334.511,1111.414Z" transform="translate(-333.844 -1085.554)" fill="#fff"/><path d="M335.54,1117.99l.043.021A.052.052,0,0,0,335.54,1117.99Z" transform="translate(-334.393 -1089.064)" fill="#fff"/><path d="M335.8,1118.8a5.169,5.169,0,0,0-.135-.742l-.034-.018C335.716,1118.146,335.7,1118.633,335.8,1118.8Z" transform="translate(-334.442 -1089.089)" fill="#fff"/><path d="M337.036,1126.154c-.083-.214-.145-.438-.218-.657.006.127.013.3-.1,0C336.911,1126.363,336.726,1125.3,337.036,1126.154Z" transform="translate(-335.02 -1093.071)" fill="#fff"/><path d="M339.186,1130.947c-.178-.327-.048.03-.075.023C339.252,1131.162,339.292,1131.205,339.186,1130.947Z" transform="translate(-336.288 -1095.906)" fill="#fff"/><path d="M363.2,1153.346l-.071.067C363.391,1153.525,363.143,1153.381,363.2,1153.346Z" transform="translate(-349.117 -1107.935)" fill="#fff"/><path d="M369.071,1154.479a1.942,1.942,0,0,1-.245-.132l-.148.034A2.674,2.674,0,0,0,369.071,1154.479Z" transform="translate(-352.08 -1108.469)" fill="#fff"/><path d="M372.645,1156.878l-.125-.019.474.088Z" transform="translate(-354.131 -1109.81)" fill="#fff"/><path d="M423.136,1139.448c-.046,0-.093,0-.142,0C422.878,1139.6,422.951,1139.714,423.136,1139.448Z" transform="translate(-381.042 -1100.515)" fill="#fff"/><path d="M433.576,1117.013a.971.971,0,0,0,.152-.617C433.684,1116.646,433.6,1116.887,433.576,1117.013Z" transform="translate(-386.719 -1088.213)" fill="#fff"/><path d="M401.42,1059.035l.228.044-.416-.119Z" transform="translate(-369.456 -1057.557)" fill="#fff"/></g><g transform="translate(0 0)"><path d="M314.516,1078.083l-.158.355a.533.533,0,0,1-.785.3l-8.44-3.729a.535.535,0,0,1-.3-.785l.254-.571a.643.643,0,0,1,.719-.415l6.264.556-5.349-2.364a.534.534,0,0,1-.3-.785l.156-.355a.535.535,0,0,1,.785-.3l8.44,3.729a.534.534,0,0,1,.3.785l-.216.49a.644.644,0,0,1-.721.415l-6.6-.6,5.65,2.5A.535.535,0,0,1,314.516,1078.083Z" transform="translate(-304.759 -1048.904)" fill="#fff"/><path d="M325.286,1062.437l-.327.441a.588.588,0,0,1-.824.188l-1.592-.823-1.13,1.532,1.258,1.279a.588.588,0,0,1,.062.841l-.272.372a.487.487,0,0,1-.834.051l-6.418-6.861a.6.6,0,0,1-.041-.845l.635-.862a.6.6,0,0,1,.821-.208l8.466,4.083A.486.486,0,0,1,325.286,1062.437Zm-4.024-.862-4.155-2.159,3.289,3.333Z" transform="translate(-310.233 -1042.254)" fill="#fff"/><path d="M326.077,1044.863l.225.238a.533.533,0,0,1-.019.841l-.83.79,5.73,6.009a.534.534,0,0,1-.021.841l-.387.37a.534.534,0,0,1-.841-.021l-5.73-6.008-.83.79a.534.534,0,0,1-.841-.019l-.226-.239a.534.534,0,0,1,.021-.841l2.906-2.771A.535.535,0,0,1,326.077,1044.863Z" transform="translate(-314.022 -1035.416)" fill="#fff"/><path d="M339.211,1035.434l4.12,6.545c.854,1.36.315,2.4-1.018,3.241l-.051.032c-1.335.839-2.5.888-3.363-.484l-4.12-6.545a.532.532,0,0,1,.188-.819l.453-.285a.534.534,0,0,1,.82.186l3.977,6.318c.4.629.783.631,1.262.331s.644-.652.248-1.281l-3.977-6.318a.535.535,0,0,1,.188-.821l.452-.286A.534.534,0,0,1,339.211,1035.434Z" transform="translate(-320.72 -1030.335)" fill="#fff"/><path d="M358.846,1038.3l-.492.173a.629.629,0,0,1-.794-.242l-2.306-3.064-.828.29,1.179,3.351a.535.535,0,0,1-.365.759l-.5.178a.535.535,0,0,1-.759-.364l-3.055-8.7a.533.533,0,0,1,.364-.757l1.977-.7c1.485-.522,2.675-.278,3.2,1.209l.616,1.752a1.911,1.911,0,0,1-.424,2.2l2.428,3.1A.472.472,0,0,1,358.846,1038.3Zm-4.912-4.245.856-.3a.824.824,0,0,0,.582-1.213l-.449-1.275a.824.824,0,0,0-1.213-.582l-.856.3Z" transform="translate(-329.373 -1027.052)" fill="#fff"/><path d="M375.133,1035.429l-.546.067a.586.586,0,0,1-.7-.469l-.494-1.722-1.889.229-.068,1.79a.589.589,0,0,1-.569.623l-.456.055a.484.484,0,0,1-.608-.569l.586-9.37a.6.6,0,0,1,.584-.61l1.063-.13a.6.6,0,0,1,.713.452l2.839,8.955A.485.485,0,0,1,375.133,1035.429ZM373,1031.916l-1.281-4.5-.167,4.677Z" transform="translate(-339.475 -1025.097)" fill="#fff"/><path d="M388.6,1034.566l-.027.357a.535.535,0,0,1-.638.55l-3.19-.233a.535.535,0,0,1-.552-.637l.674-9.2a.533.533,0,0,1,.636-.55l.535.037a.536.536,0,0,1,.55.638l-.6,8.254,2.064.15A.535.535,0,0,1,388.6,1034.566Z" transform="translate(-347.156 -1024.847)" fill="#fff"/><path d="M399.682,1035.869a.607.607,0,0,1-.759.272.62.62,0,0,1-.473-.665l-.009-4.578-1.752,5.5a.534.534,0,0,1-.747.386l-.4-.126a.534.534,0,0,1-.385-.749l2.8-8.786a.535.535,0,0,1,.749-.385l.509.161a.628.628,0,0,1,.488.672l.068,5.86,3.462-4.735a.644.644,0,0,1,.787-.265l.567.18a.533.533,0,0,1,.385.747l-2.8,8.788a.533.533,0,0,1-.747.385l-.452-.144a.532.532,0,0,1-.387-.747l1.754-5.5Z" transform="translate(-352.988 -1025.834)" fill="#fff"/><path d="M415.556,1046.013l-2.916-1.787a.535.535,0,0,1-.195-.819l4.82-7.858a.534.534,0,0,1,.819-.2l2.876,1.765a.533.533,0,0,1,.2.817l-.173.28a.533.533,0,0,1-.817.2l-1.914-1.174-1.492,2.433,1.521.933a.532.532,0,0,1,.195.816l-.171.28a.535.535,0,0,1-.819.2l-1.521-.933-1.569,2.561,1.951,1.2a.535.535,0,0,1,.2.819l-.171.28A.535.535,0,0,1,415.556,1046.013Z" transform="translate(-362.176 -1030.394)" fill="#fff"/><path d="M422.805,1052.379l-.28-.267a.534.534,0,0,1-.021-.841l6.348-6.675a.533.533,0,0,1,.839-.021l.453.43a.64.64,0,0,1,.146.814l-2.631,5.7,4.024-4.232a.532.532,0,0,1,.839-.021l.282.267a.532.532,0,0,1,.021.839l-6.348,6.675a.533.533,0,0,1-.841.023l-.387-.37a.64.64,0,0,1-.146-.814l2.792-6-4.249,4.467A.535.535,0,0,1,422.805,1052.379Z" transform="translate(-367.502 -1035.273)" fill="#fff"/><path d="M443.586,1061.288l-.268.188a.537.537,0,0,1-.83-.15l-.652-.943-6.827,4.732a.535.535,0,0,1-.828-.15l-.306-.441a.535.535,0,0,1,.15-.828l6.827-4.731-.653-.943a.535.535,0,0,1,.15-.828l.269-.186a.534.534,0,0,1,.83.151l2.289,3.3A.535.535,0,0,1,443.586,1061.288Z" transform="translate(-373.603 -1041.94)" fill="#fff"/><path d="M439.958,1078.576l-1.4-3.124a.535.535,0,0,1,.3-.787l8.421-3.765a.535.535,0,0,1,.787.3l1.378,3.083a.534.534,0,0,1-.3.787l-.3.133a.536.536,0,0,1-.787-.3l-.916-2.05-2.608,1.166.728,1.63a.535.535,0,0,1-.3.787l-.3.133a.535.535,0,0,1-.787-.3l-.728-1.63-2.743,1.226.935,2.091a.535.535,0,0,1-.3.787l-.3.134A.535.535,0,0,1,439.958,1078.576Z" transform="translate(-376.137 -1049.39)" fill="#fff"/></g><g transform="translate(6.997 55.057)"><path d="M326.887,1148.411l-.311-.379a.519.519,0,0,1,.081-.813l.646-.53a.851.851,0,1,0-1.079-1.316l-.535.439a1.017,1.017,0,0,0-.379,1.151l.236,1.337c.19,1.095.21,1.823-.625,2.511l-1.126.924c-1.2.989-2.24.589-3.211-.592l-.019-.022c-.969-1.181-1.17-2.268.045-3.265l.914-.751a.516.516,0,0,1,.811.081l.311.38a.516.516,0,0,1-.081.811l-.734.6a.866.866,0,1,0,1.1,1.337l.612-.5a1.027,1.027,0,0,0,.393-1.181l-.228-1.324c-.187-1.115-.187-1.842.625-2.51l1.025-.843c1.161-.952,2.3-.469,3.181.6l.017.021c.879,1.07,1.131,2.285-.03,3.237l-.824.676A.519.519,0,0,1,326.887,1148.411Z" transform="translate(-319.766 -1143.205)" fill="#fff"/><path d="M331.015,1160.647l-.395-.34a.518.518,0,0,1-.06-.813l5.839-6.765a.515.515,0,0,1,.813-.06l.394.338a.517.517,0,0,1,.058.813l-5.837,6.767A.518.518,0,0,1,331.015,1160.647Z" transform="translate(-325.438 -1148.037)" fill="#fff"/><path d="M339.4,1166.02l-.324-.188a.517.517,0,0,1-.207-.788l4.512-7.713a.518.518,0,0,1,.789-.206l.522.306a.623.623,0,0,1,.319.738l-1.218,5.965,2.86-4.889a.518.518,0,0,1,.788-.207l.323.189a.517.517,0,0,1,.207.789l-4.51,7.713a.519.519,0,0,1-.788.207l-.449-.263a.624.624,0,0,1-.319-.738l1.305-6.282-3.019,5.161A.517.517,0,0,1,339.4,1166.02Z" transform="translate(-329.908 -1150.452)" fill="#fff"/><path d="M369.088,1171.973l-.5,2.544c-.3,1.529-1.4,1.9-2.9,1.6l-.112-.022c-1.5-.3-2.381-1.042-2.077-2.583l1.172-5.939c.289-1.47,1.4-1.9,2.9-1.6l.113.023c1.5.3,2.366,1.113,2.077,2.583l-.167.849a.518.518,0,0,1-.677.455l-.509-.1a.516.516,0,0,1-.454-.676l.118-.593a.922.922,0,1,0-1.81-.357l-1.07,5.43a.922.922,0,1,0,1.81.357l.289-1.472-.4-.077a.519.519,0,0,1-.455-.678l.051-.254a.517.517,0,0,1,.677-.454l1.471.289A.518.518,0,0,1,369.088,1171.973Z" transform="translate(-343.074 -1155.182)" fill="#fff"/><path d="M385.2,1176.564l.006.347a.517.517,0,0,1-.565.586l-3.1.057a.516.516,0,0,1-.586-.565l-.164-8.93a.517.517,0,0,1,.565-.587l.518-.01a.518.518,0,0,1,.588.565l.146,8.01,2-.037A.518.518,0,0,1,385.2,1176.564Z" transform="translate(-352.337 -1156.024)" fill="#fff"/><path d="M396.86,1165.37l1.694,7.306c.351,1.519-.473,2.3-1.964,2.647l-.056.014c-1.489.345-2.572.019-2.928-1.514l-1.692-7.307a.517.517,0,0,1,.432-.693l.505-.117a.518.518,0,0,1,.693.432l1.633,7.054c.163.7.518.828,1.051.7s.8-.393.636-1.095l-1.635-7.054a.518.518,0,0,1,.432-.693l.5-.117A.517.517,0,0,1,396.86,1165.37Z" transform="translate(-358.262 -1154.665)" fill="#fff"/><path d="M408.921,1160.187l.135.285a.519.519,0,0,1-.272.77l-1,.475,3.453,7.27a.517.517,0,0,1-.272.768l-.47.224a.521.521,0,0,1-.77-.274l-3.453-7.268-1,.477a.52.52,0,0,1-.77-.274l-.135-.287a.517.517,0,0,1,.272-.768l3.517-1.671A.518.518,0,0,1,408.921,1160.187Z" transform="translate(-364.878 -1151.954)" fill="#fff"/><path d="M424.656,1161.364,422,1163.348a.518.518,0,0,1-.807-.118l-5.347-7.167a.517.517,0,0,1,.116-.808l2.625-1.958a.519.519,0,0,1,.808.118l.189.254a.517.517,0,0,1-.118.808l-1.744,1.3,1.656,2.219,1.388-1.034a.517.517,0,0,1,.808.116l.19.255a.519.519,0,0,1-.118.807l-1.388,1.035,1.742,2.334,1.78-1.327a.518.518,0,0,1,.807.118l.19.253A.517.517,0,0,1,424.656,1161.364Z" transform="translate(-370.97 -1148.388)" fill="#fff"/><path d="M433.161,1152.6l-.242.285a.518.518,0,0,1-.814.064l-6.8-5.8a.517.517,0,0,1-.064-.813l.393-.46a.622.622,0,0,1,.783-.186l5.663,2.251-4.313-3.678a.517.517,0,0,1-.064-.813l.242-.286a.519.519,0,0,1,.815-.064l6.8,5.8a.517.517,0,0,1,.064.813l-.336.4a.626.626,0,0,1-.785.184l-5.958-2.392,4.553,3.885A.517.517,0,0,1,433.161,1152.6Z" transform="translate(-375.971 -1142.931)" fill="#fff"/></g></g></svg>