<svg xmlns="http://www.w3.org/2000/svg" width="69.801" height="76.451" viewBox="0 0 69.801 76.451"><g transform="translate(0 0)"><g transform="translate(13.021 15.736)"><circle cx="22.568" cy="22.568" r="22.568" fill="#fff" stroke="#fff" stroke-miterlimit="10" stroke-width="1.485"/><g transform="translate(6.862 14.252)"><path d="M698.426,1111.093c-11.747,0-14.589-12.505-13.915-15.23.337-1.363,29,.055,29.828,0,.824,2.409-1.765,15.23-12.375,15.23Z" transform="translate(-684.419 -1092.329)" fill="#6395b4" stroke="#6395b4" stroke-miterlimit="10" stroke-width="0.971"/><ellipse cx="14.914" cy="3.535" rx="14.914" ry="3.535" transform="translate(0.092)" fill="#fff" stroke="#6395b4" stroke-miterlimit="10" stroke-width="0.728"/><path d="M728.654,1114.213c-.228.36-2.037,2.016-6.193,2.031-5.116.017-7.028,2.449-7.861,3.849s-.719,3.071.245,3.161c1.453.135,5.428-.78,9.38-4.332.282-.254.456-.051.19.273a15.254,15.254,0,0,1-8.318,4.651,26.079,26.079,0,0,1-3.855.314c-.483-.007.132.7.132.7a2.65,2.65,0,0,0,.46.009c.217-.012,1.769-.222,2.834-.455a1.209,1.209,0,0,0,.859.527c3.193.68,9.27.913,12.311-9.686C729.069,1114.454,728.883,1113.853,728.654,1114.213Z" transform="translate(-699.17 -1102.383)" fill="#6395b4" stroke="#fff" stroke-width="0.69"/></g></g><g transform="translate(0 0)"><path d="M651.439,1074.975l-.236.481a.534.534,0,0,1-.8.271l-8.276-4.075a.534.534,0,0,1-.272-.8l.237-.481a.535.535,0,0,1,.8-.272l8.276,4.074A.536.536,0,0,1,651.439,1074.975Z" transform="translate(-641.775 -1048.864)" fill="#fff"/><path d="M655.47,1064.207l-.229.312a.533.533,0,0,1-.83.13l-7.439-5.439a.533.533,0,0,1-.13-.83l.368-.505a.643.643,0,0,1,.79-.25l5.993,1.876-4.717-3.447a.532.532,0,0,1-.128-.83l.227-.312a.533.533,0,0,1,.832-.13l7.439,5.438a.536.536,0,0,1,.13.832l-.317.432a.641.641,0,0,1-.79.249l-6.309-2,4.979,3.641A.535.535,0,0,1,655.47,1064.207Z" transform="translate(-644.404 -1040.654)" fill="#fff"/><path d="M666.921,1046.277l1.752,2.022c1.053,1.213.655,2.345-.535,3.378l-.09.077c-1.19,1.033-2.358,1.276-3.419.052l-4.091-4.72c-1.012-1.168-.656-2.345.537-3.378l.09-.077c1.19-1.033,2.405-1.221,3.419-.051l.584.674a.533.533,0,0,1-.06.839l-.4.349a.534.534,0,0,1-.839-.06l-.409-.471a.952.952,0,1,0-1.438,1.247l3.74,4.315a.952.952,0,1,0,1.438-1.247l-1.014-1.168-.314.272a.534.534,0,0,1-.839-.06l-.174-.2a.534.534,0,0,1,.058-.839l1.169-1.012A.534.534,0,0,1,666.921,1046.277Z" transform="translate(-651.473 -1034.323)" fill="#fff"/><path d="M682.547,1041.813l-.458.244a.629.629,0,0,1-.823-.117l-2.747-2.68-.773.413,1.675,3.136a.532.532,0,0,1-.244.8l-.471.254a.535.535,0,0,1-.805-.245l-4.347-8.13a.533.533,0,0,1,.244-.805l1.847-.99c1.391-.743,2.6-.683,3.346.708l.877,1.639a1.911,1.911,0,0,1-.084,2.238l2.874,2.694A.472.472,0,0,1,682.547,1041.813Zm-5.5-3.449.8-.428a.823.823,0,0,0,.391-1.288l-.639-1.192a.823.823,0,0,0-1.288-.391l-.8.426Z" transform="translate(-658.686 -1029.225)" fill="#fff"/><path d="M696.681,1036.585l-3.286.952a.536.536,0,0,1-.738-.407l-2.565-8.857a.535.535,0,0,1,.407-.738l3.242-.939a.533.533,0,0,1,.736.406l.092.316a.532.532,0,0,1-.406.736l-2.157.625.795,2.744,1.714-.5a.534.534,0,0,1,.736.407l.092.314a.536.536,0,0,1-.406.738l-1.716.5.836,2.886,2.2-.637a.535.535,0,0,1,.738.406l.09.313A.534.534,0,0,1,696.681,1036.585Z" transform="translate(-667.546 -1025.668)" fill="#fff"/><path d="M711.052,1026.657l.451,5.986c.118,1.57-.873,2.27-2.443,2.388l-2.06.156a.533.533,0,0,1-.636-.548l-.691-9.187a.533.533,0,0,1,.548-.637l2.058-.154C709.85,1024.543,710.934,1025.087,711.052,1026.657Zm-2.719-.481-.873.066.552,7.349.875-.066a.824.824,0,0,0,.877-1.02l-.411-5.452C709.3,1026.312,708.9,1026.133,708.333,1026.176Z" transform="translate(-675.878 -1024.646)" fill="#fff"/><path d="M722.545,1035.117l-.533-.047a.536.536,0,0,1-.539-.648l.836-9.185a.536.536,0,0,1,.648-.539l.533.049a.535.535,0,0,1,.539.646l-.837,9.188A.533.533,0,0,1,722.545,1035.117Z" transform="translate(-684.311 -1024.671)" fill="#fff"/><path d="M732.163,1037.007l-3.32-.823a.533.533,0,0,1-.434-.721l2.219-8.949a.533.533,0,0,1,.719-.436l3.276.813a.536.536,0,0,1,.436.721l-.079.317a.534.534,0,0,1-.721.434l-2.18-.541-.687,2.771,1.733.43a.536.536,0,0,1,.434.721l-.079.318a.534.534,0,0,1-.721.434l-1.731-.43-.723,2.916,2.221.552a.535.535,0,0,1,.436.721l-.079.318A.534.534,0,0,1,732.163,1037.007Z" transform="translate(-688.002 -1025.396)" fill="#fff"/><path d="M740.535,1040.368l-.347-.169a.534.534,0,0,1-.272-.8l4.056-8.276a.534.534,0,0,1,.8-.272l.561.274a.645.645,0,0,1,.383.736l-.8,6.228,2.57-5.246a.536.536,0,0,1,.8-.272l.347.171a.536.536,0,0,1,.272.8l-4.058,8.276a.535.535,0,0,1-.8.272l-.479-.236a.642.642,0,0,1-.385-.734l.864-6.562-2.715,5.539A.532.532,0,0,1,740.535,1040.368Z" transform="translate(-694.113 -1027.916)" fill="#fff"/><path d="M763.05,1042.683l-.2.257a.534.534,0,0,1-.835.1l-.9-.7L756,1048.87a.533.533,0,0,1-.834.1l-.422-.329a.534.534,0,0,1-.1-.836l5.107-6.532-.9-.7a.533.533,0,0,1-.1-.834l.2-.257a.532.532,0,0,1,.834-.1l3.162,2.471A.534.534,0,0,1,763.05,1042.683Z" transform="translate(-701.937 -1032.425)" fill="#fff"/><path d="M763.736,1059.62l-2.26-2.565a.532.532,0,0,1,.053-.837l6.911-6.095a.534.534,0,0,1,.839.053l2.232,2.531a.533.533,0,0,1-.054.839l-.244.216a.534.534,0,0,1-.839-.053l-1.483-1.684-2.141,1.887,1.179,1.339a.535.535,0,0,1-.052.839l-.246.216a.534.534,0,0,1-.839-.052l-1.179-1.339-2.251,1.987,1.513,1.716a.535.535,0,0,1-.053.839l-.246.216A.534.534,0,0,1,763.736,1059.62Z" transform="translate(-705.569 -1038.149)" fill="#fff"/><path d="M776.912,1067.979l-.254-.437a.533.533,0,0,1,.214-.813l.745-.434a.878.878,0,1,0-.882-1.517l-.616.359a1.049,1.049,0,0,0-.577,1.11l.023,1.4c.013,1.146-.086,1.891-1.049,2.452l-1.3.754c-1.388.808-2.377.231-3.17-1.13l-.015-.026c-.792-1.361-.819-2.5.582-3.314l1.054-.614a.532.532,0,0,1,.813.214l.256.438a.534.534,0,0,1-.216.813l-.847.494a.893.893,0,1,0,.9,1.542l.706-.411a1.057,1.057,0,0,0,.593-1.138l-.013-1.384c-.009-1.166.111-1.906,1.05-2.452l1.181-.689c1.337-.777,2.42-.1,3.138,1.134l.015.024c.719,1.234.773,2.51-.563,3.287l-.952.554A.533.533,0,0,1,776.912,1067.979Z" transform="translate(-709.941 -1045.043)" fill="#fff"/></g><g transform="translate(4.837 54.412)"><path d="M652.541,1148.225l-.234-.291a.518.518,0,0,1,.084-.811l6.949-5.62a.517.517,0,0,1,.811.087l.379.469a.625.625,0,0,1,.04.8l-3.25,5.15,4.405-3.562a.515.515,0,0,1,.809.084l.237.291a.516.516,0,0,1-.087.811l-6.947,5.622a.519.519,0,0,1-.811-.086l-.327-.4a.623.623,0,0,1-.037-.8l3.441-5.417-4.651,3.763A.517.517,0,0,1,652.541,1148.225Z" transform="translate(-652.148 -1141.346)" fill="#fff"/><path d="M675.478,1155.6l-4.531,5.98c-.943,1.241-2.073,1.11-3.291.186l-.045-.035c-1.221-.924-1.662-1.964-.711-3.219l4.531-5.98a.516.516,0,0,1,.807-.111l.415.313a.519.519,0,0,1,.11.809l-4.373,5.772c-.435.576-.306.927.132,1.26s.813.36,1.249-.214l4.373-5.773a.519.519,0,0,1,.809-.111l.413.314A.519.519,0,0,1,675.478,1155.6Z" transform="translate(-659.747 -1147.18)" fill="#fff"/><path d="M689.527,1162.135l-.135.287a.518.518,0,0,1-.766.281l-1.007-.468-3.389,7.3a.518.518,0,0,1-.766.281l-.471-.22a.517.517,0,0,1-.28-.766l3.387-7.3-1.006-.469a.518.518,0,0,1-.282-.766l.135-.287a.517.517,0,0,1,.766-.28l3.531,1.639A.519.519,0,0,1,689.527,1162.135Z" transform="translate(-668.423 -1151.119)" fill="#fff"/><path d="M699.659,1175.42l-.492-.109a.612.612,0,0,1-.53-.606l-.327-3.709-.832-.186-.749,3.367a.519.519,0,0,1-.689.437l-.507-.114a.516.516,0,0,1-.437-.687l1.945-8.731a.52.52,0,0,1,.689-.439l1.987.443c1.492.333,2.347,1.144,2.013,2.636l-.393,1.761a1.854,1.854,0,0,1-1.478,1.592l.409,3.8A.457.457,0,0,1,699.659,1175.42Zm-1.865-6.018.858.191a.8.8,0,0,0,1.1-.7l.285-1.281a.8.8,0,0,0-.7-1.1l-.858-.192Z" transform="translate(-675.06 -1153.769)" fill="#fff"/><path d="M713.841,1177.042l-.518-.022a.517.517,0,0,1-.552-.6l.364-8.932a.516.516,0,0,1,.6-.552l.519.021a.516.516,0,0,1,.552.6l-.362,8.93A.519.519,0,0,1,713.841,1177.042Z" transform="translate(-684.505 -1155.005)" fill="#fff"/><path d="M724.348,1166.618l.035.315a.518.518,0,0,1-.5.64l-1.1.128.933,7.989a.519.519,0,0,1-.507.641l-.514.06a.518.518,0,0,1-.64-.507l-.933-7.988-1.1.128a.516.516,0,0,1-.638-.5l-.037-.316a.517.517,0,0,1,.505-.638l3.866-.453A.518.518,0,0,1,724.348,1166.618Z" transform="translate(-688.006 -1154.562)" fill="#fff"/><path d="M735.749,1174.353l-.5.141a.519.519,0,0,1-.712-.4l-2.418-8.6a.516.516,0,0,1,.4-.712l.5-.141a.518.518,0,0,1,.711.4l2.418,8.6A.518.518,0,0,1,735.749,1174.353Z" transform="translate(-694.815 -1153.761)" fill="#fff"/><path d="M743,1159.518l2.321,8.814a.582.582,0,0,1-.349.74l-.7.334a.581.581,0,0,1-.8-.2l-5.368-7.366a.471.471,0,0,1,.2-.783l.483-.229a.57.57,0,0,1,.788.216l3.96,5.815-2.005-6.743a.569.569,0,0,1,.331-.749l.4-.192A.47.47,0,0,1,743,1159.518Z" transform="translate(-697.955 -1150.824)" fill="#fff"/><path d="M752.4,1153.316l.09-.071c1.2-.945,2.368-1.093,3.314.107l3.746,4.756c.944,1.2.527,2.3-.674,3.246l-.09.072c-1.2.944-2.368,1.092-3.314-.107l-3.746-4.756C750.769,1155.351,751.2,1154.262,752.4,1153.316Zm5.522,6.919a.8.8,0,0,0,.154-1.3l-3.425-4.349a.923.923,0,0,0-1.45,1.142l3.425,4.348A.8.8,0,0,0,757.919,1160.235Z" transform="translate(-705.017 -1147.296)" fill="#fff"/><path d="M766.51,1144.334l-.308.383a.517.517,0,0,1-.809.092l-.653-.524a.851.851,0,1,0-1.062,1.329l.54.434a1.017,1.017,0,0,0,1.2.131l1.258-.509c1.031-.413,1.741-.584,2.585.092l1.138.908c1.216.973,1.042,2.069.086,3.263l-.017.022c-.956,1.194-1.976,1.617-3.2.635l-.924-.738a.518.518,0,0,1-.09-.811l.306-.383a.518.518,0,0,1,.811-.09l.744.594a.866.866,0,1,0,1.079-1.352l-.62-.5a1.029,1.029,0,0,0-1.235-.139l-1.249.5c-1.051.415-1.763.566-2.585-.092l-1.036-.828c-1.172-.937-.939-2.154-.073-3.235l.017-.023c.865-1.081,2-1.577,3.171-.64l.834.667A.517.517,0,0,1,766.51,1144.334Z" transform="translate(-710.604 -1141.889)" fill="#fff"/></g></g></svg>